<?xml version="1.0" encoding="UTF-8"?>
<svg id="Layer_1" xmlns="http://www.w3.org/2000/svg" viewBox="0 0 242.1 62.4"><style>.st0{fill:#3a796a}</style><path class="st0" d="M31.2 62.4C14 62.4 0 48.4 0 31.2S14 0 31.2 0s31.2 14 31.2 31.2-14 31.2-31.2 31.2zm0-56.5c-14 0-25.3 11.4-25.3 25.3 0 14 11.4 25.3 25.3 25.3s25.3-11.4 25.3-25.3c0-14-11.3-25.3-25.3-25.3z"/><path class="st0" d="M28.3 2.9h5.9v56.5h-5.9z"/><path class="st0" d="M31.2 28.3h28.3v5.9H31.2z"/><g><path class="st0" d="M93.1 9.4h-5.7V7.7H95v1.1c0 2.5-.6 4.4-1.9 5.9s-3 2.2-5.3 2.2c-2.4 0-4.3-.8-5.8-2.4-1.4-1.6-2.2-3.6-2.2-6s.7-4.4 2.2-6C83.5.8 85.5 0 87.9 0c.7 0 1.4.1 2.1.2s1.2.3 1.6.5.8.4 1.1.6c.3.2.6.4.7.5l.2.2-1.1 1.4-.5-.5c-.2-.2-.7-.5-1.5-.8s-1.6-.5-2.5-.5c-1.8 0-3.3.6-4.4 1.9s-1.7 2.9-1.7 4.7.5 3.5 1.6 4.7c1.1 1.3 2.5 1.9 4.4 1.9 1.6 0 2.9-.5 3.9-1.5s1.5-2.4 1.5-4v.1h-.2zM100.1 16.5V.4h1.9v14.4h8.4v1.7h-10.3zM115.6 14.5c-1.5-1.6-2.2-3.6-2.2-6s.7-4.4 2.2-6C117 .8 119 0 121.3 0c2.4 0 4.3.8 5.8 2.4s2.2 3.6 2.2 6.1c0 2.4-.7 4.4-2.2 6s-3.4 2.4-5.8 2.4c-2.3 0-4.3-.8-5.7-2.4zm10.2-1.3c1.1-1.3 1.7-2.8 1.7-4.7s-.6-3.5-1.7-4.7-2.6-1.9-4.4-1.9-3.3.6-4.4 1.9-1.7 2.9-1.7 4.7c0 1.9.6 3.4 1.7 4.7s2.6 1.9 4.4 1.9c1.8 0 3.2-.7 4.4-1.9zM145.9 15.4c-1 .7-2.4 1.1-4.2 1.1h-7.1V.4h6.8c1.7 0 3.1.4 4.1 1.1s1.5 1.8 1.5 3.2c0 .9-.2 1.6-.7 2.2s-1 1-1.8 1.3v.1c.9.2 1.6.7 2.2 1.3.5.6.8 1.4.8 2.4 0 1.5-.5 2.6-1.6 3.4zm-4.5-13.3h-4.9v5.4h4.9c1.1 0 2-.2 2.6-.7s1-1.1 1-2c0-1.8-1.2-2.7-3.6-2.7zm-4.9 7.1v5.5h5.3c1.1 0 2-.2 2.7-.7s1-1.2 1-2.1c0-.8-.3-1.5-1-2s-1.6-.7-2.6-.8h-5.4v.1zM166.1 16.5h-1.9l-1.5-3.6H154l-1.5 3.6h-1.9L157.5.4h1.7l6.9 16.1zm-11.3-5.3h7.1l-3.6-8.4-3.5 8.4zM170.5 16.5V.4h1.9v14.4h8.4v1.7h-10.3zM84.3 39.2h-3.9V23.1h3.9v16.1zM104.2 39.2h-3l-7.8-9.4v9.4h-3.9V23.1h3l7.8 9.3v-9.3h3.9v16.1zM124.2 39.2h-3l-7.8-9.4v9.4h-3.9V23.1h3l7.8 9.3v-9.3h3.9v16.1zM130.9 37.1c-1.6-1.6-2.3-3.6-2.3-6s.8-4.3 2.3-6c1.6-1.6 3.5-2.4 5.9-2.4s4.4.8 6 2.4 2.3 3.6 2.3 6c0 2.3-.8 4.3-2.3 6-1.6 1.6-3.6 2.5-6 2.5s-4.4-.8-5.9-2.5zm9-2.6c.8-.9 1.2-2 1.2-3.4s-.4-2.5-1.2-3.4-1.8-1.3-3.1-1.3c-1.2 0-2.2.4-3 1.3s-1.2 2-1.2 3.4.4 2.5 1.2 3.4 1.8 1.3 3 1.3 2.2-.4 3.1-1.3zM147.2 23.1h4.2l4.1 12 4.1-12h4.2l-6.2 16.1h-4.3l-6.1-16.1zM180.6 39.2h-4.2l-1-2.9h-6.2l-1 2.9H164l6.2-16.1h4.3l6.1 16.1zm-10.3-6h4.1l-2-6-2.1 6zM181.3 23.1h13v3.4h-4.5v12.8h-3.9V26.4h-4.5v-3.3h-.1zM202.4 39.2h-3.9V23.1h3.9v16.1zM209.1 37.1c-1.6-1.6-2.3-3.6-2.3-6s.8-4.3 2.3-6c1.6-1.6 3.5-2.4 5.9-2.4s4.4.8 6 2.4 2.3 3.6 2.3 6c0 2.3-.8 4.3-2.3 6-1.6 1.6-3.6 2.5-6 2.5-2.3 0-4.3-.8-5.9-2.5zm9-2.6c.8-.9 1.2-2 1.2-3.4s-.4-2.5-1.2-3.4-1.8-1.3-3.1-1.3c-1.2 0-2.2.4-3 1.3s-1.2 2-1.2 3.4.4 2.5 1.2 3.4 1.8 1.3 3 1.3c1.3 0 2.3-.4 3.1-1.3zM242.1 39.2h-3l-7.8-9.4v9.4h-3.9V23.1h3l7.8 9.3v-9.3h3.9v16.1zM90.9 54.6h-8.1v7.3h-1.9V45.8h11.3v1.7h-9.4v5.4h8.1v1.7zM98.7 60.4c-1.2-1.3-1.7-3-1.7-5.2v-9.4h1.9v9.4c0 1.6.4 2.9 1.2 3.9.8 1 1.9 1.5 3.4 1.5s2.6-.5 3.4-1.5 1.2-2.3 1.2-3.9v-9.4h1.9v9.4c0 2.2-.6 3.9-1.7 5.2s-2.7 2-4.8 2c-2.1-.1-3.6-.7-4.8-2zM129.2 61.9h-1.3l-10.3-12.8v12.8h-1.9V45.8h1.4l10.2 12.8V45.8h1.9v16.1zM146.5 59.7c-1.5 1.5-3.5 2.2-5.9 2.2h-5.4V45.8h5.4c2.5 0 4.4.7 5.9 2.2s2.3 3.4 2.3 5.9-.8 4.4-2.3 5.8zm-9.4-12.2v12.6h3.4c1.9 0 3.4-.6 4.6-1.7 1.2-1.1 1.8-2.7 1.8-4.6 0-1.9-.6-3.5-1.8-4.6s-2.7-1.7-4.6-1.7h-3.4z"/></g></svg>
