<?xml version="1.0" encoding="UTF-8"?>
<svg id="Layer_2" xmlns="http://www.w3.org/2000/svg" viewBox="0 0 1175.1 558.3"><style>.st0{fill-rule:evenodd;clip-rule:evenodd}.st0,.st1{fill:#3c7a6b}</style><path class="st0" d="M559.3 126.2c-6.1-17.3-10.7-37.4-40.9-69.5C486 22.2 459.8 9.9 435 3.6c-28.4-7.3-63-4.5-90.7 18-25.4 20.7-44.2 52.6-61.4 74.3-13.4-24.8-18.2-52.4-37.2-72.5-24.6-26-87.5-20.5-95.6-19.7-20.8 2-50.8 6.5-88.1 35.5-38.6 30-57.8 75.1-61.5 120-2.9 35.4 6.7 79.8 23.1 114.4 22.8 48 66.6 89.4 98.2 129.9 33.3 42.6 36.9 48.3 63.3 77.9 18.4 20.6 40.1 45.7 59 64.4 2.1-33.5 7.7-100.9 19.8-134.4-11.2-17.9-27.3-38.9-43-58.8-12.8-16.3-36.4-35-36-59 12.3-.3 28.1 10.3 37.9 19.9 9.3 9 27 31.5 37.1 38.9 0-16.3-3.5-40.9-7.9-62.5-4.3-21.1-13-82.2 7.5-110.9 17.7 21.7 17 73.8 16.9 100.6-.2 32.7 6.3 45.9 6.3 45.9s16.1-12.3 18.8-50.4c2.3-31.8 14-76.4 35.8-90.2 4.9 30.4-4.3 56.3-7.2 75.3-2.7 18-2.7 42.4 3.2 57.7 0 0 4.1-10.2 10.6-29.8 6.4-19.3 17-59 41.9-70.7 4.5 27.9-16.6 78.3-22.7 95.6-6.1 17.2-6.1 31.2-6.1 31.2s7.7-2.3 14.7-16.4c7.4-14.9 14.9-30 26.8-41.9 14-14 28.8-21 28.8-21-11.6 27.7-25.5 56.4-36.2 74.3-9 15-21.4 34.4-38.9 51.7-14.4 14.1-25.4 19.8-26.8 28.8 0 0 1.6 30 .4 56.2-.9 19-.3 60.9.1 82.6 28-19 64.6-54.7 83.9-77.2 22.3-26 34.9-38.7 81.5-96.3 46.6-57.5 64-96.9 71.3-140.9 7.8-46.8 2.8-100.6-3.3-117.9z"/><path class="st1" d="M995.1 106h-35.2V1.1h-23.1v125.2h58.3V106zm-99.9 0h-37V70h25.9V52.5h-25.9V20.7h36.4V1.1h-59.1v125.2h59.8V106zm-30.7 180.6h6.1c17.7 0 32.1-14.4 32.1-32.1v-94.7h-23.1v95.8c0 6-4.9 10.9-10.9 10.9h-2.1c-6 0-10.9-4.9-10.9-10.9v-95.8h-23.1v94.7c-.1 17.7 14.2 32.1 31.9 32.1zm149.7-82.4v-16.5c0-17.5-14.2-30.2-31.7-30.2h-5.3c-17.5 0-31.7 14.2-31.7 31.7v65.6c0 17.5 14.2 31.7 31.7 31.7h5.3c17.5 0 31.7-12.7 31.7-30.2v-16.7h-20.7v15.6c0 6.2-5 11.3-11.3 11.3h-2.8c-6.2 0-11.3-5-11.3-11.3v-66.6c0-6.2 5-11.3 11.3-11.3h2.8c6.2 0 11.3 5 11.3 11.3v15.5h20.7zm160.3-98.2h-37V70h25.9V52.5h-25.9V20.7h36.4V1.1h-59.1v125.2h59.8V106zm-64.1 347h45.1v-30.6h-45.1V367h63.4v-34.1h-103V551H1175v-37.1h-64.5V453zm-41.9-380.5h26.4V53.3h-26.4V20.5h35.5V1.1h-58.6v125.2h23.1V72.5zm-39.1-71.4h-23.5v125.2h23.5V1.1zm-259.3 74h25.1v51.2h23.6V1.1h-23.6v53.4h-25.1V1.1h-23.6v125.2h23.6V75.1zM838.3 332l-44 218.1h37.8l7.6-43.1h39.2l7 43.1h41.4l-44-218.1h-45zm6.9 143.6l14.8-84.1 13.7 84.1h-28.5zm-103.5-49.7c-9.3-7.4-15.5-11.5-19.4-15.4-3.9-3.8-7.7-8.3-11.1-13.8-3.3-5.6-3.8-10-3.8-15.4 0-5.3 1.8-10.3 5-14 3.2-3.7 8.4-6.1 14.8-6.1s13.2 2.7 16.4 7.3c3.2 4.7 4.5 10.4 4.5 21.2v7.6h37v-9.4c0-20-6.4-34.9-16.2-44.7-9.8-9.8-23.7-15.1-41.7-15.1-19.1 0-33.7 6-43.4 16.2-9.7 10.1-15.8 24.3-15.8 39.5 0 9.7 1.1 16.8 5.4 26 4.8 10.3 10.8 18 15.9 22.9 13.5 13.2 18.4 15.6 32 26.7 16.2 13.2 21.2 20.8 24.1 28 1.7 4.2 2.2 10.2 1.8 15-1.2 13.5-9.2 19.4-22.1 19.4-13 0-21.8-7.9-21.8-25.6v-12.5h-37v15.2c0 16.4 5.4 29.8 16.2 40.2 10.8 10.4 25.2 15.6 43.2 15.6 17.6 0 31.8-5.1 42.9-15.2 11-10.1 18.1-23.5 18.1-40.3 0-15-1.7-26.7-10.8-39.8-7.7-11.3-16.3-19.1-34.2-33.5zm353-141.7l-25-124.4H1044l-25.1 124.4h21.6l4.3-24.6h22.3l4 24.6h23.6zm-46.7-42.5l8.4-48 7.8 48H1048zm-59 243.4l-26.7-152.6h-41.1l46.9 218.1h39.1l48.4-218.1h-39.5L989 485.1zm165-325.3v73.5l-31.5-73.5h-19.2v124.4h20.8v-72.6l32.9 72.6h18.2V159.8H1154zm-373.8-2.3c-17.7 0-32.1 14.4-32.1 32.1v64.9c0 17.7 14.4 32.1 32.1 32.1h6.1c17.7 0 32.1-14.4 32.1-32.1v-64.9c0-17.7-14.4-32.1-32.1-32.1h-6.1zm15 31v67.2c0 6-4.9 10.9-10.9 10.9h-2.1c-6 0-10.9-4.9-10.9-10.9v-67.2c0-6 4.9-10.9 10.9-10.9h2.1c6-.1 10.9 4.8 10.9 10.9zM690 126.3h22.3V20.5h23.4V1.1h-69.5v19.4H690v105.8zm26.7 157.9V233l28.1-73.1h-23.3l-15.3 50.5-16.4-50.5h-23.3l26.9 73.2v51.2h23.3z"/></svg>
