<?xml version="1.0" encoding="UTF-8"?>
<svg id="svg11978" xmlns="http://www.w3.org/2000/svg" viewBox="0 0 720 215"><style>.st0,.st1,.st2,.st3{fill-rule:evenodd;clip-rule:evenodd;fill:#3c7a6b}.st1,.st2,.st3{fill:#3a796a}.st2,.st3{fill:#fff}.st3{fill:#568c7f}.st4{fill:#3a796a}</style><g id="layer1"><path id="path53870" class="st0" d="M340.8 38.5v58.1c0 33.9-23.1 45.6-51.2 45.6-29.7 0-51.1-13.8-51.1-45.5V38.5H264v58.8c0 14.7 10.6 23.6 25.3 23.6 13.5 0 26-7 26-25.4v-57h25.5z"/><path id="path53872" class="st0" d="M430.1 65.1l-1.4-.6-1.3-.6-1.3-.5-1.3-.5-1.2-.5-1.3-.5-1.1-.5-1.2-.4-1.1-.4-1.1-.4-1.1-.4-1-.4-1.1-.4-1-.3-1-.4-1-.2-1-.3-1-.2-1.8-.4-1.8-.4-1.7-.3-1.7-.2-1.7-.2-1.6-.1h-1.6c-9.2 0-15 3.3-15 8.4 0 15.5 52.1 11.1 52.1 46.9 0 19.6-16.5 31-39.3 31-17.9 0-26.7-4.6-36.9-9.9v-22c14.7 9.7 23.8 13.2 35 13.2 9.7 0 15-3.4 15-9.4 0-16.8-52.1-10.6-52.1-47.4 0-17.7 15.3-29.4 39-29.4 11.4 0 21.8 2.4 34.7 7.9l-.1 19.8z"/><path id="polygon53876" class="st1" d="M555.9 140.9h-27.5l-8.4-20.3h-45.8l-7.6 20.3h-27l41.3-102.4h29.5l45.5 102.4zM496.1 63l-15 39.8h31.5c-.1 0-16.5-39.8-16.5-39.8z"/><path id="polygon53878" class="st1" d="M567.2 38.5v102.4h25.5V38.5z"/><path id="path53882" class="st1" d="M659.8 38.5l3.4.1 3.4.2 3.2.3 3.1.5 3 .6 2.9.7 2.8.8 2.7.9 2.6 1 2.5 1.1 2.4 1.3 2.3 1.3 2.2 1.4 2 1.6 1.9 1.6 1.8 1.7 1.7 1.8 1.6 1.9 1.5 1.9 1.4 2 1.3 2 1.2 2.2 1 2.2 1 2.2.8 2.3.7 2.4.6 2.4.5 2.5.4 2.5.3 2.5.2 2.6.1 2.6c0 29.4-18.7 51-59.4 51h-42.4V38.5h45.3zm-19.6 83.7h16.6c25.7 0 33.3-17.4 33.3-32.4 0-17.6-9.4-32.4-33.6-32.4h-16.3v64.8z"/><path id="polygon53884" class="st0" d="M251.6 172.9v3.2h-9.5v11.3h-3.5v-24.3h13v3.1h-9.5v6.7z"/><path id="path53888" class="st0" d="M261.5 163.1l.4.1h.5l.4.1h.4l.4.1.4.1.4.1.4.1.4.1.4.2.3.1.4.2.3.2.3.2.2.2.3.2.2.2.2.2.2.3.2.2.2.2.2.3.2.3.1.3.1.3.1.4.1.4.1.3.1.4.1.4v.8c0 2.8-1.4 4.9-4 6 2.2 1.4 3.5 3.7 5.4 6.7 1 1.7 1.6 2.5 3.3 4.8H270l-3.2-5c-3.2-5-4.6-5.5-6.4-5.5H259v10.5h-3.5v-24.3l6-.2zm-2.7 10.6h2.3c3.7 0 4.8-1.9 4.7-4 0-2.3-1.4-3.7-4.7-3.7h-2.3v7.7z"/><path id="path53892" class="st0" d="M288.7 162.8h.7l.7.1.7.1.7.1.7.2.7.1.7.2.6.2.5.2.6.2.5.3.5.4.5.4.5.4.5.4.4.4.4.5.4.4.4.5.4.5.3.5.3.5.3.5.2.5.2.6.2.5.2.6.1.6.1.6.1.6v.7l.1.6c0 6.6-4.9 12.5-13.1 12.5-7.9 0-13-5.9-13-12.5-.1-6.7 5.1-12.4 12.9-12.4zm0 21.7h.5l.5-.1.5-.1.5-.1.5-.1.5-.1.4-.1.4-.2.4-.2.4-.2.4-.2.4-.2.4-.2.4-.2.4-.3.3-.3.3-.3.3-.4.3-.4.2-.4.2-.4.2-.4.2-.4.2-.4.2-.4.1-.4.1-.5.1-.4.1-.5.1-.5.1-.5v-.5c0-5.4-4-9.3-9.4-9.3s-9.4 3.9-9.4 9.3c-.2 5.4 3.8 9.4 9.2 9.4z"/><path id="polygon53894" class="st0" d="M325 168.4l-7.4 9.5h-.6l-7.4-9.5h-.2v19H306v-24.3h3.2l8.1 10 8.1-10h3.2v24.3h-3.5v-19z"/><path id="polygon53896" class="st0" d="M350 187.4v-21.2h-8.3v-3.1H362v3.1h-8.5v21.2z"/><path id="polygon53898" class="st0" d="M368.7 176.8v10.6h-3.5v-24.3h3.5v10.6h13.6v-10.6h3.5v24.3h-3.5v-10.6z"/><path id="polygon53900" class="st0" d="M404.6 173.5v3.2h-10v7.6h10.6v3.1h-14.1v-24.3h13.8v3.1h-10.3v7.3z"/><path id="polygon53904" class="st0" d="M439.9 187.4h-3.5l-3.2-7.2h-10.3l-3.1 7.2h-3.5l10.4-24.4h2.5l10.7 24.4zm-15.8-10.3h7.6l-3.9-8.8-3.7 8.8z"/><path id="polygon53906" class="st0" d="M461.6 168.4l-7.5 9.5h-.6l-7.4-9.5h-.2v19h-3.4v-24.3h3.3l8 10 8.1-10h3.2v24.3h-3.5v-19z"/><path id="polygon53908" class="st0" d="M483.7 173.5v3.2h-9.8v7.6h10.6v3.1h-14.1v-24.3h13.8v3.1h-10.3v7.3z"/><path id="path53912" class="st0" d="M494.3 163.1l.5.1h.4l.4.1h.4l.4.1.4.1.4.1.4.1.4.1.4.2.4.1.3.2.3.2.3.2.3.2.2.2.2.2.2.2.2.3.2.2.2.2.2.3.2.3.1.3.1.3.1.4.1.4.1.3.1.4.1.4v.4l.1.4c0 2.8-1.5 4.9-4.1 6 2.2 1.4 3.5 3.7 5.4 6.7 1 1.7 1.6 2.5 3.3 4.8h-4.2l-3.2-5c-3.2-5-4.7-5.5-6.4-5.5h-1.5v10.5h-3.4v-24.3l6-.2zm-2.6 10.6h2.2c3.8 0 4.8-1.9 4.8-4-.1-2.3-1.4-3.7-4.8-3.7h-2.2v7.7z"/><path id="polygon53914" class="st0" d="M509.7 163.1v24.3h3.5v-24.3z"/><path id="path53916" class="st0" d="M539.2 168.5l-.5-.3-.6-.3-.5-.2-.5-.2-.5-.2-.5-.2-.5-.2-.5-.2-.5-.1-.5-.1-.5-.1-.5-.1-.5-.1-.5-.1-.5-.1h-.5c-5.5 0-9.7 4-9.7 9.3 0 5.5 4 9.3 9.8 9.3 2.7 0 5.7-1 8.5-2.8v3.8c-2.4 1.3-5 2.2-8.8 2.2-9.1 0-13.1-7-13.1-12.1 0-7.4 5.6-12.8 13.3-12.8 2.5 0 5.1.6 8.4 2l-.3 3.6z"/><path id="polygon53920" class="st0" d="M564.8 187.4h-3.5l-3.2-7.2h-10.3l-3 7.2H541l10.5-24.4h2.4l10.9 24.4zM549 177.1h7.5l-3.9-8.8-3.6 8.8z"/><path id="polygon53922" class="st0" d="M570.7 187.4h-3.3v-24.3h2.8l16.4 18.8v-18.8h3.3v24.3h-3l-16.2-18.7z"/><path id="path53926" class="st0" d="M612.5 163.1l.5.1h.5l.4.1.4.1.4.1.4.1.4.1.4.2.4.1.3.1.4.2.3.2.3.2.2.2.3.2.2.2.2.2.2.3.2.2.2.2.2.3.2.3.1.3.1.3.1.3.1.4.1.3.1.4.1.3v.4l.1.4v.4c0 3.8-2.6 6.8-8.2 6.8h-3.7v10.5h-3.5v-24.3l7.6-.2zm-4.1 10.6h4c2.6 0 4.3-1.4 4.3-3.8 0-1.8-1-3.7-4.1-3.7h-4.2v7.5z"/><path id="polygon53928" class="st0" d="M636.7 173.5v3.2h-10v7.6h10.6v3.1h-14v-24.3H637v3.1h-10.3v7.3z"/><path id="path53932" class="st0" d="M653 162.8h.8l.7.1.7.1.7.1.7.2.7.1.6.2.6.2.6.2.6.2.5.3.5.4.5.4.5.4.4.4.5.4.4.5.4.4.4.5.4.5.3.5.3.5.2.5.2.5.2.6.2.5.1.6.2.6.1.6.1.6.1.7v.6c0 6.6-4.9 12.5-13.1 12.5-7.9 0-12.9-5.9-12.9-12.5-.2-6.7 5-12.4 12.8-12.4zm0 21.7h.5l.5-.1.5-.1.5-.1.5-.1.4-.1.5-.1.4-.2.4-.2.4-.2.4-.2.4-.2.4-.2.4-.2.4-.3.3-.3.3-.3.3-.4.3-.4.2-.4.2-.4.2-.4.2-.4.2-.4.2-.4.1-.4.1-.5.1-.4.1-.5.1-.5.1-.5v-.5c0-5.4-4-9.3-9.5-9.3-5.4 0-9.4 3.9-9.4 9.3-.1 5.4 3.9 9.4 9.3 9.4z"/><path id="path53936" class="st0" d="M677.7 163.1l.5.1h.5l.5.1.4.1.4.1.4.1.4.1.4.2.3.1.4.1.4.2.3.2.3.2.2.2.2.2.3.2.2.2.2.3.2.2.2.2.2.3.2.3.1.3.1.3.1.3.1.4.1.3.1.4.1.3v.4l.1.4v.4c0 3.8-2.6 6.8-8.2 6.8h-3.7v10.5h-3.5v-24.3l7.5-.2zm-4.1 10.6h4c2.6 0 4.3-1.4 4.3-3.8 0-1.8-1-3.7-4.2-3.7h-4.1v7.5z"/><path id="polygon53938" class="st0" d="M688.4 187.4v-24.3h3.5v21.2h11v3.1z"/><path id="polygon53940" class="st0" d="M719.3 173.5v3.2h-10v7.6H720v3.1h-14.1v-24.3h13.7v3.1h-10.3v7.3z"/><path id="path53944" class="st0" d="M1.8 108l.1-5.4.4-5.4L3 92l1-5.2 1.1-5.1 1.4-5 1.6-4.9L10 67l2.1-4.7 2.3-4.5 2.5-4.5 2.7-4.3 2.9-4.1 3.1-4 3.3-3.9 3.5-3.6 3.7-3.5 3.8-3.3 4-3.1 4.2-2.9 4.3-2.8 4.4-2.5 4.5-2.3 4.7-2.1L70.8 9l4.9-1.7 5-1.4 5.1-1.2L91 4l5.2-.7 5.4-.4 5.4-.1C165.1 2.8 212.3 50 212.3 108S165.1 213.2 107 213.2C49 213.3 1.8 166 1.8 108z"/><path id="path53946" class="st0" d="M0 108l.2 5.5.4 5.4.7 5.4 1 5.3 1.2 5.2 1.4 5.1 1.7 5 1.9 4.9 2.1 4.7L13 159l2.5 4.5 2.8 4.4 2.9 4.2 3.2 4.1 3.4 3.9 3.5 3.7 3.7 3.5 3.9 3.4 4.1 3.2 4.2 2.9 4.4 2.8 4.5 2.5 4.6 2.4 4.7 2.1 4.9 1.9 5 1.7 5.1 1.4 5.2 1.2 5.3 1 5.3.7 5.5.4 5.5.1c59 0 107-48 107-107S166.1 1 107 1C48 1 0 49 0 108z"/><path id="path53942" class="st2" d="M.9 108l.2-5.5.4-5.4.7-5.3.9-5.2 1.2-5.1 1.4-5.1 1.6-4.9 1.9-4.8 2.1-4.7 2.3-4.6 2.6-4.5 2.8-4.3 2.9-4.2 3.1-4 3.4-3.9 3.5-3.7 3.7-3.5 3.9-3.3 4-3.2 4.2-2.9 4.3-2.8 4.4-2.5 4.6-2.3 4.8-2.2 4.8-1.9 4.9-1.7 5-1.4L85.7 4l5.2-1 5.4-.7 5.4-.4 5.5-.1c58.6 0 106.1 47.5 106.1 106.1 0 58.6-47.5 106.1-106.1 106.1S.9 166.6.9 108z"/><path id="path53950" class="st0" d="M23.3 108l.1-4.3.4-4.2.5-4.2.7-4.1.9-4.1 1.1-4 1.3-3.9 1.5-3.8 1.7-3.7 1.9-3.6 2-3.5 2.2-3.4 2.3-3.2 2.5-3.2 2.6-3.1 2.8-2.9 2.9-2.8 3.1-2.6 3.1-2.5 3.3-2.3 3.4-2.2 3.5-2 3.6-1.9 3.7-1.6 3.8-1.5 3.9-1.3 4-1.1 4-1 4.2-.7 4.2-.5 4.3-.3 4.3-.1c46.2 0 83.8 37.5 83.8 83.8 0 46.1-37.5 83.8-83.8 83.8-46.2-.2-83.8-37.8-83.8-84z"/><path id="path53952" class="st0" d="M21.5 108l.1 4.4.4 4.3.5 4.3.7 4.2 1 4.2 1.1 4 1.4 4 1.5 3.9L30 145l1.9 3.7 2 3.5 2.2 3.5 2.4 3.4 2.5 3.2 2.7 3.1 2.8 2.9 2.9 2.8 3.1 2.7 3.2 2.5 3.3 2.4 3.5 2.2 3.6 2 3.7 1.9 3.8 1.7 3.9 1.6 4 1.3 4.1 1.1 4.1 1 4.2.7 4.3.6 4.3.3 4.4.1c47.2 0 85.5-38.4 85.5-85.5 0-47.2-38.3-85.5-85.5-85.5-47 .3-85.4 38.7-85.4 85.8z"/><path id="path53948" class="st2" d="M107 192.6l4.4-.1 4.3-.3 4.3-.5 4.2-.8 4.1-.9 4-1.1 3.9-1.3 3.9-1.6 3.7-1.7 3.7-1.9 3.5-2 3.4-2.2 3.3-2.3 3.2-2.5 3.1-2.6 2.9-2.8 2.8-2.9 2.7-3.1 2.5-3.2 2.4-3.3 2.2-3.4 2-3.5 1.9-3.7 1.7-3.7 1.5-3.9 1.3-3.9 1.1-4 1-4.1.7-4.2.5-4.2.4-4.3.1-4.3c0-46.7-37.9-84.6-84.7-84.6-46.7 0-84.6 37.8-84.6 84.6 0 46.4 37.9 84.3 84.6 84.3z"/><path id="polygon53954" class="st0" d="M58.4 138.2v15.3h97.7v-15.3z"/><path id="polygon53956" class="st2" d="M68.9 146.5l1.3 3.6h-.1l-3-2.2-3 2.2H64l1.2-3.6-3-2.3h3.7l1.2-3.6 1.1 3.6H72z"/><path id="polygon53958" class="st2" d="M82.4 146.5l1.2 3.6-3-2.2-3.1 2.2 1.2-3.6-3.1-2.3h3.8l1.2-3.6 1.1 3.6h3.8z"/><path id="polygon53960" class="st2" d="M95.9 146.5l1.2 3.6H97l-3-2.2-3 2.2 1.2-3.6-3.1-2.3h3.8l1.1-3.6 1.2 3.6H99z"/><path id="polygon53962" class="st2" d="M109.4 146.5l1.2 3.6h-.1l-3-2.2-3.1 2.2 1.3-3.6-3.2-2.3h3.9l1.1-3.6 1.2 3.6h3.7z"/><path id="polygon53964" class="st2" d="M122.9 146.5l1.1 3.6-3-2.2-3.1 2.2 1.2-3.6-3.1-2.3h3.8l1.2-3.6 1.1 3.6h3.8z"/><path id="polygon53966" class="st2" d="M136.3 146.5l1.2 3.6-3.1-2.2-3 2.2 1.2-3.6-3.1-2.3h3.8l1.1-3.6h.1l1.1 3.6h3.8z"/><path id="polygon53968" class="st2" d="M149.8 146.5l1.2 3.6-3.1-2.2-3 2.2 1.1-3.6-3-2.3h3.7l1.2-3.6 1.1 3.6h3.9z"/><path id="polygon53970" class="st3" d="M58.4 155.5v.5l.1.2v.3l.1.2.1.3.1.4.1.3.1.4.2.3.2.5.2.4.1.4.3.5.3.5.2.4.4.5.3.5.4.5.4.5.5.5.4.5.5.5.6.5.6.5.6.5.6.5.7.4v-11.7h-8.1v.1z"/><path id="path53972" class="st3" d="M70.8 155.3h11.1v18.2s-7-1.6-11.1-3.9v-14.3z"/><path id="path53974" class="st3" d="M86.3 155.3v19s3.9.7 4.6.8c.7 0 4.8.6 6.6 1.4v-21.2H86.3z"/><path id="polygon53976" class="st3" d="M156.1 155.5V155.8l-.1.2-.1.2v.3l-.1.2v.3l-.2.4-.1.3-.1.4-.2.3-.1.5-.2.4-.2.4-.3.5-.2.5-.3.4-.4.5-.3.5-.3.5-.4.5-.5.5-.4.5-.6.5-.5.5-.6.5-.6.5-.6.5-.8.4v-11.7h8.2v.1z"/><path id="path53978" class="st3" d="M143.7 155.3h-11.2v18.2s7-1.6 11.2-3.9v-14.3z"/><path id="path53980" class="st3" d="M128.4 155.3v19s-4 .7-4.6.8c-.6 0-4.8.6-6.6 1.4v-21.2h11.2z"/><path id="polygon53982" class="st0" d="M58.4 49.2v28.4h97.7V49.2z"/><path id="path53984" class="st2" d="M85 55.1v9.1c0 5.4-3.6 7.2-8 7.2-4.7 0-8.1-2.2-8.1-7.2v-9.1h4v9.3c0 2.3 1.7 3.7 4 3.7 2.2 0 4.1-1.1 4.1-4v-9h4z"/><path id="path53986" class="st2" d="M99.3 59.4l-.2-.1-.2-.1-.2-.1-.2-.1-.2-.1-.2-.1-.2-.1-.2-.1-.2-.1-.2-.1-.1-.1H97l-.2-.1-.2-.1-.1-.1-.2-.1h-.1l-.2-.1-.2-.1-.3.3H95l-.2-.1h-.5c-1.4 0-2.3.5-2.3 1.3 0 2.4 8.2 1.7 8.2 7.3 0 3.1-2.6 4.9-6.2 4.9-2.8 0-4.2-.7-5.8-1.6v-3.4c2.3 1.5 3.7 2 5.5 2 1.6 0 2.3-.5 2.3-1.4 0-2.7-8.2-1.7-8.2-7.5 0-2.8 2.4-4.6 6.1-4.6 1.8 0 3.4.4 5.4 1.2v3.3z"/><path id="polygon53990" class="st2" d="M119.3 71.2H115l-1.3-3.1h-7.2l-1.2 3.1H101l6.5-16.1h4.6l7.2 16.1zM109.9 59l-2.3 6.3h4.9l-2.6-6.3z"/><path id="polygon53992" class="st2" d="M121.3 55.1v16.1h4V55.1z"/><path id="path53996" class="st2" d="M136.1 55.1h.5l.5.1.5.1.5.1.4.1.5.1.4.2.4.1.4.2.4.2.4.2.4.2.4.2.3.2.3.2.3.3.2.3.2.2.2.4.2.3.2.3.2.4.2.4.2.4.1.4.1.4.1.4.1.4.1.4v.4l.1.4v.4c0 4.6-2.9 8-9.3 8H129V55.1h7.1zM133 68.3h2.6c4 0 5.2-2.8 5.2-5.1 0-2.8-1.4-5.1-5.2-5.1H133v10.2z"/><path id="path53998" class="st3" d="M107.3 183.7l-.2-.4-.2-.3-.2-.3-.2-.3-.2-.2-.2-.3-.2-.2-.2-.2-.2-.2-.2-.2-.2-.2-.2-.2-.2-.2-.2-.2-.2-.2-.2-.1-.2-.2-.2-.1-.2-.2-.2-.1-.2-.1-.1-.1-.2-.1-.1-.1-.1-.1-.1-.1-.1-.1-.1-.1h-.3l-.1-.1h-.1v-23.1h10.9v23.1c0-.1-3.3 1.7-5.4 5.2z"/><path id="polygon54000" class="st0" d="M196.2 92.8l2.3-3.2-2.3-3.2 3.8 1.2 2.5-3.3v4.1l3.7 1.2-3.7 1.2v4l-2.5-3.3z"/><path id="polygon54002" class="st0" d="M17.2 86.4l-2.3 3.2 2.3 3.2-3.8-1.3-2.5 3.3v-4l-3.7-1.2 3.8-1.2v-4.1l2.4 3.3z"/><path id="path54004" class="st0" d="M18.6 58l6 2.9c3.5 1.7 3.5 4.7 2.1 7.5-1.5 3.1-4 4.6-7.2 2.9l-6-2.9 1.3-2.6 6 2.9c1.5.7 2.9.1 3.7-1.4.7-1.4.6-3-1.3-3.9l-5.8-2.9c-.1.1 1.2-2.5 1.2-2.5z"/><path id="polygon54006" class="st0" d="M31.8 59l-1.7 2.3-9.5-6.6 1.5-2.2 9.4-1-5.8-4.1 1.7-2.4 9.5 6.7-1.4 2-9.8 1z"/><path id="polygon54008" class="st0" d="M31.7 40.1l8.8 7.7-1.9 2.2-8.8-7.7z"/><path id="polygon54010" class="st0" d="M44.5 43.6L38 36.7l-3.1 2.9-1.4-1.5 8.2-7.9 1.5 1.6-3.1 2.9 6.5 6.9z"/><path id="polygon54012" class="st0" d="M50.8 23.5l1.3 1.7-4.5 3.3 1.4 2 4.3-3.2 1.3 1.8-4.3 3.1 1.6 2.2 4.7-3.3 1.2 1.7-7 5.1-6.8-9.4z"/><path id="path54016" class="st0" d="M58.2 19.1l.4-.2.4-.2.3-.1.4-.1.3-.1.4-.1.3-.1h.4l.3-.1h.3l.3-.1.3.1h.3l.3.1.3.1.2.1.3.1.2.1.2.1.2.1.2.1.2.2.2.1.2.2.2.2.2.2.2.2.2.2.2.2.2.2.1.2.2.2c1.6 2.9.9 6.1-3.2 8.4l-4.2 2.3-5.6-10.2c.1.1 4.6-2.4 4.6-2.4zm2.6 9.4l1.7-.9c2.5-1.4 2.4-3.6 1.6-5.1-1-1.7-2.7-2.7-5.2-1.4l-1.6.9 3.5 6.5z"/><path id="path54018" class="st0" d="M80.1 13.3H79.8l-.1-.1h-.8l-.1-.1h-1l-.1.1h-.4l-.2.1h-.2l-.2.1-.2.1-.2.1c-1 .3-1.5.9-1.3 1.4.6 1.6 6.1-.7 7.3 3.2.7 2.1-.7 4-3.2 4.8-1.9.7-3 .5-4.3.2l-.8-2.5c1.9.5 3.1.5 4.2.2 1.1-.4 1.6-.9 1.3-1.6-.6-1.9-6 .7-7.3-3.3-.6-1.9.7-3.7 3.2-4.6 1.3-.4 2.5-.5 4-.4 0 .1.7 2.3.7 2.3z"/><path id="polygon54020" class="st0" d="M88.2 20.2l-1.8-9.3-4.2.8-.4-2.1L93 7.4l.4 2.1-4.2.8 1.9 9.3z"/><path id="polygon54024" class="st0" d="M106.6 18l-3.1.2-1.1-2.2-5.2.4-.7 2.3-3.1.3 3.8-12 3.3-.2 6.1 11.2zm-7.5-8.3l-1.4 4.6 3.6-.3-2.2-4.3z"/><path id="polygon54026" class="st0" d="M109 18.3l.4-9.5-4.2-.2V6.5l11.4.4-.1 2.1-4.2-.1-.3 9.5z"/><path id="polygon54028" class="st0" d="M127.8 8.6l-.3 2.1-5.5-.9-.4 2.4 5.2.9-.3 2.2-5.3-.9-.4 2.7 5.6.9-.4 2.2-8.4-1.4 1.8-11.5z"/><path id="path54030" class="st0" d="M137.8 14.5l-.1-.1-.1-.1-.1-.1-.1-.1-.1-.1-.1-.1-.1-.1-.1-.1-.1-.1-.1-.1-.1-.1-.1-.1-.1-.1-.1-.1-.1-.1-.1-.1-.1-.1-.1-.1-.2-.1-.2-.1-.2-.1-.2-.1-.2-.1-.2-.1-.2-.1c-1-.3-1.7-.1-1.9.5-.5 1.7 5.4 2.8 4.3 6.7-.6 2.2-2.8 2.9-5.3 2.2-2-.5-2.8-1.3-3.7-2.2l.7-2.4c1.3 1.5 2.2 2.2 3.4 2.5 1.1.3 1.7.1 2-.6.5-1.8-5.4-2.8-4.3-6.8.5-1.9 2.6-2.8 5.2-2 1.3.4 2.3 1 3.5 1.9l-.7 2.7z"/><path id="polygon54034" class="st0" d="M151.1 29.5l-2.8-1.3.1-2.5-4.7-2.2-1.8 1.7-2.8-1.3 9.2-8.6 3 1.4c0 .1-.2 12.8-.2 12.8zm-2.4-10.9l-3.5 3.4 3.3 1.6c0-.1.2-5 .2-5z"/><path id="path54036" class="st0" d="M165.2 28.8l-.2-.3-.1-.2-.2-.2-.2-.2-.2-.2-.2-.2-.2-.2-.2-.2-.2-.2-.2-.2-.2-.2-.2-.2-.2-.2-.2-.2-.2-.1-.2-.2c-2.6-1.7-4.6-.7-5.6.8-1.1 1.7-.5 3.7 1.5 5.1.6.4 1 .5 1.9.7l.7-1.1-1.4-1 1.2-1.7 3.9 2.5-2.6 4c-1.3.3-3.4-.4-5-1.4-3.4-2.2-4.5-5.8-2.6-8.8 2-3 5.7-3.5 9.2-1.2 1.4 1 2.6 2.2 3.3 3.3l-1.4 2z"/><path id="polygon54038" class="st0" d="M176.5 34l-1.4 1.6-4.2-3.6-1.6 1.8 4 3.5-1.3 1.6-4.1-3.4-1.8 2.1 4.3 3.7-1.4 1.6-6.6-5.6 7.7-8.8z"/><path id="polygon54040" class="st0" d="M172.3 46.3l-1.9-2.2 8.7-7.7 1.8 2-1.2 9.4L185 43l1.9 2.2-8.8 7.8-1.6-1.9 1.4-9.7z"/><path id="path54042" class="st0" d="M186.2 63.3l-.1-.1-.1-.1-.2-.1-.1-.1-.2-.2-.3-.2-.2-.2-.2-.2-.2-.2-.2-.2-.2-.2-.2-.2-.2-.2-.2-.2-.2-.2-.2-.2-.1-.3-.2-.2c-2.5-3.8-1.3-7.3 1.3-8.9 2.6-1.7 6.4-1.1 8.8 2.6.9 1.4 1.4 2.8 1.5 4.1l-2.2 1.4c-.1-1.5-.4-2.8-1.2-4-1.3-2.1-3.5-2.8-5.2-1.6-1.7 1.1-2 3.4-.7 5.4.8 1.3 1.7 1.9 3.4 2.8l-2.4 1.5z"/><path id="polygon54044" class="st0" d="M195.5 66.4l4.4.8 1.5 3.2-7.5-1.6-5 2.3-1.2-2.6 4.9-2.3 3.7-6.8 1.5 3.1z"/><path id="polygon54046" class="st0" d="M17.6 113l-11.6.5-.1-2.9 11.6-.5z"/><path id="polygon54048" class="st0" d="M6.5 119.9l-.4-2.8 11.5-1.7.4 2.6-6.1 7.2 7-1 .4 2.8-11.5 1.7-.4-2.4 6.5-7.5z"/><path id="polygon54050" class="st0" d="M9.6 135.6l9.2-2.7-1.2-4.1 2-.6 3.3 10.9-2.1.6-1.2-4.1-9.1 2.7z"/><path id="polygon54052" class="st0" d="M26.8 148l-2 .9-2.2-5.1-2.2 1 2.1 4.9-1.9.8-2.2-4.8-2.5 1.1 2.3 5.2-2 .8-3.5-7.8 10.7-4.7z"/><path id="path54056" class="st0" d="M30.3 154.2l.1.2.1.2.1.2.1.2.1.2.1.2.1.2.1.2v.4l.1.2v.2l-.1.2v.4l-.1.1v.2l-.1.2-.1.1-.1.2-.1.1-.1.2-.1.1-.1.1-.1.1-.1.1-.1.1-.1.1-.1.1-.1.1-.1.1-.2.1c-1.1.7-2.2.5-3.4-.3.1 1.4-1 2.4-3.1 5.5l-1.6-2.8c1.5-2.3 3.2-3.9 2.4-5.2l-.4-.7-4.1 2.3-1.5-2.5 10-6 2.6 4.6zm-5.3.5l.8 1.3c.4.7 1.1 1.2 2 .7.7-.5.8-1.2.3-2.1l-.8-1.3-2.3 1.4z"/><path id="polygon54058" class="st0" d="M26.1 168.8l-1.9-2.3 9.1-7.3 1.7 2.1-1.7 9.3 5.6-4.4 1.8 2.2-9.1 7.3-1.5-1.9 1.8-9.7z"/><path id="polygon54062" class="st0" d="M43 186.6l-2.3-2.1.9-2.3-3.8-3.5-2.2 1.1-2.3-2.1 11.4-5.3 2.4 2.3c0-.1-4.1 11.9-4.1 11.9zm1-11.1l-4.3 2.2 2.6 2.5 1.7-4.7z"/><path id="polygon54064" class="st0" d="M46 188.7l5.6-7.7-3.4-2.5 1.3-1.7 9.1 6.7-1.3 1.8-3.3-2.5-5.7 7.7z"/><path id="polygon54066" class="st0" d="M62.5 185.7l-6 10-2.5-1.5 6-10z"/><path id="path54070" class="st0" d="M65.1 200.3l-.4-.2-.4-.2-.3-.2-.3-.2-.3-.2-.2-.2-.3-.2-.2-.2-.2-.2-.2-.2-.2-.2-.2-.3-.1-.2-.2-.3-.1-.2-.1-.3-.1-.3-.1-.2-.1-.3-.1-.3-.1-.3v-1.7l.1-.3.1-.2.1-.3.1-.2.1-.3.1-.2c1.2-2.6 4.6-4.5 8.5-2.6 4 1.8 4.8 5.7 3.6 8.2-1.2 2.5-4.7 4.3-8.5 2.5zm4-8.7l-.2-.1-.2-.1-.2-.1-.2-.1-.2-.1-.2-.1h-1.3l-.1.1-.2.1-.2.1-.1.1-.2.1-.1.1-.2.1-.1.1-.1.1-.2.1-.1.1-.1.2-.1.1-.1.1-.1.2-.1.1-.1.2-.1.2-.1.2c-.9 1.9-.1 3.8 1.9 4.8 2 .9 3.9.2 4.8-1.7.9-2.1.2-4-1.8-4.9z"/><path id="polygon54072" class="st0" d="M77.2 204.8l-2.8-.8 3.1-11.2 2.6.7 4.1 8.5 1.9-6.9 2.8.8-3.1 11.2-2.4-.6-4.2-8.9z"/><path id="polygon54076" class="st0" d="M101.4 209.3l-3.1-.4-.7-2.4-5.2-.7-1.1 2.2-3.1-.4 6.1-11 3.4.4c0 .1 3.7 12.3 3.7 12.3zm-5.7-9.6l-2.2 4.3 3.5.4-1.3-4.7z"/><path id="polygon54078" class="st0" d="M106.6 197.6l.1 9.5h6v2.1h-8.9l-.1-11.6z"/><path id="path54082" class="st0" d="M123.3 196.1l.4-.1.4-.1h1.6l.3.1h.4l.3.1.3.1.3.1.2.1.3.1.2.1.2.1.2.2.2.2.2.2.2.2.2.2.2.2.2.2.1.2.2.2.1.2.1.2.1.2.1.3.1.2.1.3.1.3.1.2c.6 3.3-1 6.1-5.6 7l-4.8.8-2.1-11.5 5.1-.6zm-.4 9.8l1.9-.4c2.9-.5 3.4-2.6 3.1-4.3-.4-1.9-1.7-3.4-4.5-2.9l-1.8.4c-.1-.1 1.3 7.2 1.3 7.2z"/><path id="polygon54084" class="st0" d="M139.3 191.8l.7 2.1-5.3 1.7.7 2.3 5.1-1.6.6 2-5 1.7.9 2.6 5.4-1.7.6 2-8.1 2.7-3.6-11.2z"/><path id="polygon54086" class="st0" d="M142.8 190.4l5.6 4.7-.2-7.2 2.9-1.4.1 13-1.2.5-10.1-8.3z"/><path id="polygon54088" class="st0" d="M158.9 181.5l1.1 1.8-4.7 2.9 1.3 2.1 4.5-2.8 1.2 1.8-4.5 2.9 1.5 2.3 4.8-3 1.1 1.8-7.3 4.6-6.2-9.9z"/><path id="polygon54090" class="st0" d="M162.7 178.5l6 7.4 4.6-3.7 1.4 1.6-7 5.6-7.2-9.1z"/><path id="path54094" class="st0" d="M181 177.7l-.2.2-.3.3-.3.2-.2.2-.3.2-.3.2-.3.2-.3.1-.3.1-.3.1-.3.1-.3.1-.3.1-.3.1-.3.1h-1l-.3-.1h-.3l-.3-.1-.2-.1-.3-.1-.2-.1-.3-.1-.2-.1-.2-.1-.2-.2-.2-.1-.2-.2-.2-.2-.2-.2c-2-1.9-2.8-5.8.2-9s6.9-2.6 8.9-.7c1.9 2.2 2.5 6-.5 9.1zm-6.9-6.6l-.1.1-.1.2-.1.1-.1.2-.1.2-.1.1-.1.2-.1.2-.1.2-.1.1-.1.2v.2l-.1.2v.2l-.1.1v.2l.1.2v.4l.1.1v.2l.1.2.1.2.1.1.1.2.1.1.1.2.1.2.1.1.1.1.2.2.1.1c1.6 1.4 3.6 1.4 5.1-.2 1.6-1.6 1.5-3.7-.1-5.1-1.5-1.6-3.6-1.6-5.1 0z"/><path id="path54098" class="st0" d="M181 159l.1-.2.1-.2.2-.2.2-.2.1-.1.2-.1.2-.1.1-.1.2-.1.2-.1.2-.1.1-.1.2-.1.2-.1h.2l.2-.1H184.7l.2.1h.2l.1.1.2.1.1.1.2.1.1.1.1.1.1.1.2.1c1.3.9 2.2 2.9.6 5.2l-1.3 1.9 3.8 2.7-1.6 2.3-9.6-6.7 2.9-4.4zm2.6 4.7l.7-1.1c.8-1.1.7-1.7-.1-2.2-.8-.6-1.4-.4-2.3 1l-.5.8 2.2 1.5z"/><path id="polygon54100" class="st0" d="M198.8 151.3l-6.5-3.3 1.9 4.5-.2.4-4.8 1.2 6.6 3.3-1.3 2.5-10.5-5.2 1.2-2.3 5.5-1.4-2.1-5.3 1.1-2.2 10.4 5.3z"/><path id="polygon54102" class="st0" d="M193.1 133.5l2.1.7-1.8 5.2 2.3.8 1.7-5 2 .7-1.7 5 2.7.9 1.8-5.4 2 .7-2.8 8.2-11-3.8z"/><path id="polygon54104" class="st0" d="M205.7 131.1l-.5 2.9-11.5-2.3.5-2.6 8.3-4.8-7.1-1.3.6-2.9 11.5 2.2-.5 2.5-8.6 4.9z"/><path id="polygon54106" class="st0" d="M208 115.3l-9.5-.5-.3 4.2-2.1-.1.6-11.4 2.2.2-.2 4.1 9.5.6z"/><path id="path3134" class="st4" d="M148.4 129.5s0-.1 0 0c0-.1.1-.1 0 0 .1 0 0 0 0 0zm-41.3-1h-.5-.1c-.1 0-.2 0-.3-.1-.1 0-.1-.1-.2-.1s-.1 0-.2-.1h-.1-.1c-.1 0-.1-.1-.1-.1l-.1-.1s-.1-.1-.2-.1-.1-.1-.2-.1l-.1-.1c-.1-.1-.2-.1-.3-.2 0 0-.1-.1-.2-.1s-.1-.1-.2-.1l-.2-.2h-.1s-.1.1-.2.1c-.1.1-.4.2-.6.3-.1 0-.2.1-.2.1-.1 0-.2.1-.3.1-.1 0-.2.1-.3.1l-.4.1h-.1-.2c-.1 0-.2 0-.2.1-.1 0-.1 0-.2.1h-.1c-.3.1-.9 0-1.5 0-.2 0-.6-.1-.7-.2 0 0-.1 0-.1-.1-.1 0-.7-.4-.8-.4h-.1l-.2-.2-.4-.4c-.3-.3-.3-.3-.6-.8-.2-.3-.3-.5-.3-.5 0-.1-.1 0-.3.1-.3.1-.6.2-1 .2h-.8c-.2 0-.7-.1-.9-.2h-.2c-.2 0-.2 0-.4-.1s-.5-.4-.6-.4c0 0-.1-.1-.2-.1l-.5-.5c-.1-.1-.1-.2-.2-.4l-.1-.1-.1-.1s0-.1-.1-.1c0-.1-.1-.1-.1-.2s0-.2-.1-.2h-.1-.3c-.2 0-.9.1-1.1 0-.9-.1-1-.1-1.2-.2-.1 0-.2-.1-.2-.1l-.1-.1c-.3-.2-.5-.3-.5-.3s-.1 0-.1-.1c-.1-.1-.6-.5-1-.9-.2-.2-.3-.3-.3-.5 0 0-.1-.3-.2-.4v-.1-.1-.1-.1-.1-.1h-.2-.2c-.1 0-.2 0-.3-.1-.1 0-.2-.1-.2-.1h-.1-.1-.1-.1-.1c-.1 0-.2.1-.5 0-.5-.1-1.2-.2-1.3-.3 0 0-.1-.1-.2-.1-.2-.1-.5-.4-.7-.7-.2-.3-.2-.3-.3-.7-.1-.3-.1-.3-.2-.4 0 0-.1-.2-.3-.4-.1-.2-.2-.4-.3-.4 0 0-.1-.3-.1-.4v-.1s0-.1-.1-.1v-.1-.1s0-.1-.1-.1h-3.5-.1-2.2c-.3 0-.7 0-.9.1h-.9c-.4 0-1.7.1-1.9.1h-1c-.2 0-.6 0-1.5.1h-1.6c-.5 0-.7 0-1.5.1H63.4c-.1 0-.5 0-.7.1-.8.1-.9.1-1.3.1h-.6c-.2 0-.5.1-.9.1-.2 0-.5 0-.5.1h-.8-.2c-.1 0-.3 0-.4-.1-.3 0-.3 0-.2-.1v-.1l-.1-.1c-.1 0-.1-.1-.1-.1v-.1-.1-.1-.2-.2-.1-.1l.1-.2H62.8c.2 0 .6 0 1-.1h1.1c.1 0 1-.1 1.1-.1h1.2c.2 0 .3-.1.6-.1h.3c.2 0 .9-.1 1-.1h.2c.1 0 .5-.3.6-.4l.9-.9c.1-.1.2-.3.3-.4.2-.2.8-.8 1.2-1.1.1-.1.3-.2.4-.3.1-.1.3-.2.3-.3.1-.1.2-.2.3-.2.1 0 .1-.1.2-.1.2-.1.6-.5.7-.6.3-.2.9-.4 1-.5.1 0 .1 0 0 0l-.2.2-.3.3-.3.3c-.2.2-.7.6-.8.8l-.1.1s-.1.1-.3.2c-.1.1-.3.2-.3.2s-.1.2-.5.5c-.6.6-.9.9-.9 1 0 0-.1.1-.1.2-.1.1-.1.1 0 .2v.2h.1c.1 0 .1 0 .3-.1l.2-.2.1-.1.1-.1c.4-.3.7-.7 1.2-1.1.4-.4.5-.4.5-.4h.1l.5-.5s.4-.5.5-.5c.1-.1.4-.3.6-.5.1-.1.2-.1.2-.1l.1-.1c.2-.2.5-.5.8-.7.3-.2.3-.2.4-.3.1-.1.2-.1.2-.2 0 0 .2-.1.3-.2.2-.2.5-.4.7-.5l.2-.2c.1-.1.2-.1.2-.2 0 0 .1-.1.2-.1s.2-.1.3-.2c.2-.1.5-.2.5-.3h.1l-.3.3-.5.5c-.4.4-.6.5-.7.7-.1 0-.2.2-.3.3-.1.1-.2.2-.3.2-.1 0-.1.1-.2.2l-.3.3-.5.5-.5.5s-1 .9-1.1 1.1l-.3.3c-.1.1-.3.3-.3.4l-.6.6c-.1.1-.2.2-.2.3-.1.2-.1.2-.2.3-.1.1-.1.1 0 .2s.1.1.2.1.2 0 .4-.2c.3-.2.5-.3.6-.5.1-.1.3-.3.5-.4.1 0 .2-.2.3-.3l.9-.9.4-.4c.1-.1.4-.4 1.1-1 .1-.1.3-.3.4-.3.1-.1.2-.1.2-.2l.1-.1c.2-.1.5-.4.6-.5l.3-.3c.1-.1.2-.2.3-.2.2-.1.5-.4.7-.5 0 0 .2-.1.2-.2.1-.1.2-.2.3-.2.1 0 .2-.2.4-.3.3-.3.4-.3.6-.4.2-.1.3-.1.3-.1s-.1.2-.3.4l-.7.7-.6.6-.1.1-.1.1-.1.1c-.1.1-.5.5-.6.5l-.2.2c-.1.1-.3.2-.3.3l-.1.1-.5.5c-.2.2-.2.3-.2.3s0 .1-.1.1l-.1.1s0 .1-.1.1c-.1.1-.5.4-.6.6 0 .1-.2.2-.3.4l-.3.3c0 .1-.1.1-.1.1l-.3.3-.1.1-.1.1s-.1.2-.2.3c-.2.2-.2.3-.1.3H76.4l.1-.1s.2-.1.3-.2c.1-.1.2-.2.3-.2.2-.2.5-.4.9-.8.2-.1.4-.3.4-.4.5-.4.9-.8 1.2-1.1l.5-.5c.1-.1.7-.5.9-.7l.3-.3c.2-.1.7-.5.8-.5 0 0 .1 0 .1-.1l.1-.1-.4.4-.2.2c-.1.1-.1.2-.2.2l-.2.2-.2.2-.2.2c-.1.1-.1.2-.3.3l-.4.4s-.1.1-.1.2c-.1.1-.1.1-.1.2s0 .1-.2.3c-.1.1-.2.3-.3.3-.1.1-.1.1-.1.2 0 0-.2.3-.3.3v.1s0 .1-.1.2l-.1.1h.2l.2-.2c.1-.1.2-.2.3-.2.2-.1.2-.2.6-.6.2-.1.3-.3.4-.4.1 0 .2-.1.2-.2.1 0 .1-.1.2-.2.3-.2.5-.4.5-.4.1-.1.2-.1.2-.1s.7-.5.9-.6c.2-.2.3-.3.5-.4.2-.1.3-.2.6-.5.1 0 .1-.1.2-.1 0 0 .1-.1.2-.1.1-.1.2-.1.2-.2.1 0 .2-.1.2-.1h.1v.1l-.1.1s0 .1-.1.1l-.1.1-.2.2c-.1.1-.1.2-.2.2l-.1.1-.4.4-.3.3-.1.1-.1.1s-.1.1-.3.2c-.3.3-.6.5-.7.8 0 .1-.1.1-.2.2-.2.1-.3.3-.3.3v.2s0 .1-.1.1c-.1.1-.1.2-.1.3h.2c.1 0 .1-.1.1-.1h.2l.3-.3s.2-.1.3-.3c.2-.2.3-.3.5-.4.1-.1.5-.4.8-.7.2-.2.3-.2.4-.3l.2-.2c.1-.1.2-.1.2-.2l.1-.1.1-.1c.1 0 .3-.2.4-.4l.2-.2c.1-.1.2-.1.3-.2.1-.1.2-.1.4-.3l.1-.1h.4c.1 0 .4-.2.5-.3l.1-.1c.1 0 .1 0-.1.1-.1.1-.2.2-.4.3-.3.2-.6.6-.6.6l-.3.3c-.1.1-.3.4-.5.5 0 0-.1.1-.1.2l-.1.1s-.1.1-.1.2c-.1.2-.3.3-.4.4l-.2.2s-.1 0-.1.1c-.3.3-.3.4-.4.4-.1 0-.1.1-.1.1l-.2.2c-.3.2-.3.3-.1.4.1 0 .2 0 .4-.1.1-.1.2-.1.3-.2.2-.1.4-.3.7-.5.1-.1.3-.2.4-.3.1-.1.2-.2.3-.2.1 0 .1-.1.2-.2l.1-.1s.1 0 .1-.1c0 0 .1-.1.2-.1.2-.1.4-.2.5-.4.2-.1.2-.2 1-.8.3-.2.6-.5.8-.6.1-.1.3-.3.5-.4.1-.1.4-.3.5-.4.1-.1.3-.3.4-.3.1-.1.2-.2.3-.2.1-.1.2-.1.2-.1.1 0 .3-.2.5-.3.2-.1.4-.3.4-.3s0 .1-.3.3c1.2.7 1.2.7 1.2.8l-.1.1-.7.7-.4.4-.1.1c-.1 0-.1.1-.2.1l-1 .8c-.7.6-1 .9-1.3 1.2l-.4.4v.1l-.2.2-.3.3c-.4.3-.8.8-.9.9l-.1.1c-.1 0-.1.1-.1.2h.5s.3-.2.4-.2l.1-.1.2-.1h.1c.1 0 .2-.1.3-.2 0-.1.2-.2.3-.3.1-.1.3-.2.4-.3.1 0 .2-.2.3-.2.1-.1.3-.2.4-.3l.2-.2.2-.2.2-.2.1-.1.1-.1c.2-.1.3-.2.4-.3v-.1s.1 0 .1-.1l.1-.1.1-.1.1-.1.1-.1.1-.1.1-.1c.1-.1.2-.1.2-.1s.8-.5 1.1-.7c.1-.1.3-.2.4-.2.1 0 .1-.1.1-.1.1 0 .1 0 .1.1s-.1.2-.4.4c0 0-.1.1-.2.1s-.1.1-.1.1-.1 0-.1.1l-.2.2c-.5.5-1.1 1-1.1 1.1l-.3.3-.4.4-.3.3-.1.1-.4.4c-.8.7-1.3 1.3-1.4 1.4l-.1.1c-.2.2-.2.4 0 .4.1 0 .1.1.2 0 .1 0 .2-.1.3-.2 0-.1.1-.1.1-.1l.1-.1c0-.1.2-.2.4-.4.1-.1.4-.4.6-.5 0 0 .2-.1.3-.3.8-.6 1.3-1.1 1.4-1.1l.2-.2s.1 0 .1-.1l.1-.1s.2-.2.3-.2c.1 0 .2-.1.6-.4.3-.2.4-.3.5-.3 0 0 .1-.1.2-.1.1-.1.2-.2.3-.2l.2-.2c.1-.1.4-.3.5-.4 0 0 .1-.1.2-.1s.1-.1.2-.2c.1 0 .1-.1.1-.1l.1-.1.1-.1h.1c.4-.3.8-.5.8-.5l-.3.4c-.1.2-.4.4-.5.5-.3.3-.6.6-.6.7l-1.1 1.1c-.5.4-.9.7-1.1.9l-.2.2c-.2.1-.5.4-.7.6-.1.1-.1.2-.1.2 0 .1 0 .2.1.3.1.1.2 0 .4-.1.1-.1.2-.1.2-.1s.4-.2.5-.3c.1 0 .2-.1.2-.2.1 0 .2-.1.2-.1s.1-.1.2-.1.1-.1.2-.1l.1-.1.1-.1s.1-.1.2-.1.2-.1.2-.2c.1-.1.1-.1.2-.1 0 0 .1 0 .1-.1l.1-.1s.1 0 .1-.1h.1s.1-.1.2-.1c.1-.1.2-.1.2-.1.1 0 .2-.2.3-.2h.2l.2-.1h.2s.1-.1.2-.1c.1-.1.2-.1.2-.1s.1-.1.3-.2c0 0 .1-.1.2-.1s.2-.1.3-.2c.1 0 .2-.1.3-.2.1 0 .2-.1.2-.1.1-.1.2-.1.3-.1v.1s-.1.1-.2.1c-.2.1-.2.2-.3.2-.2.2-.6.5-.7.6 0 0-.1 0-.1.1l-.1.1-.1.1c-.1 0-.2.1-.3.2l-.1.1s0 .1-.1.1-.1 0-.1.1c0 0-.1.1-.2.1l-.1.1-.1.1-.1.1c-.2.2-.3.2-.4.3l-.1.1-.1.1-.1.1-.1.1s-.1.1-.2.1c-.1.1-.2.2-.3.2-.1.1-.2.2-.3.2v.3s.1 0 .1.1c.1 0 .2 0 .5-.2.1-.1.2-.1.3-.2.1 0 .2-.1.2-.1.1-.1.4-.2.7-.4.2-.1.4-.2.4-.3 0 0 .4-.3.8-.7l.8-.6c0-.1.1-.1.4-.2.2-.1.3-.1.5-.1H99.3s.3.1.4.2h.1l.2.2.1.1.1.1c.1 0 .1.1.2.1 0 0 .1 0 .2.1.1 0 .2.1.3.1.1.1.3.1.4.1h.8s-.1.2-.2.2c0 0-.1 0-.1.1l-.1.1s-.1.1-.2.1c-.1.1-.3.2-.3.2-.1 0-.1.1-.2.1h-.1l-.1.1s-.1.1-.2.1-.2.1-.2.1c-.1 0-.2.1-.2.2-.1.1-.2.2-.3.2-.1.1-.2.2-.2.3v.1H100s.1 0 .2-.1c.2-.1.5-.2.6-.3.2-.1.4-.3.9-.5.4-.2.7-.3.8-.4h.1l-.1.1s-.1.1-.2.1c-.1.1-.5.4-.6.5l-.5.5v.1s-.1 0-.1.1l-.4.4v.2c0 .1.2.1.3.1h.2c.2 0 .3 0 .5-.2 0 0 .1-.1.2-.1 0 0 .2-.1.3-.1.5-.2 1.2-.5 1.2-.4l-.2.2-.1.1c-.1 0-.2.1-.3.2-.1.1-.2.2-.3.2 0 0-.1.1-.2.1-.2.2-.5.5-.6.5 0 0-.1.1-.2.1v.2c.1.1.1.1.2 0 .1 0 .2 0 .3-.1.1 0 .3-.1.3-.1.1 0 .2-.1.3-.1.1 0 .2-.1.2-.1s.1 0 .2-.1c.1 0 .3-.1.4-.1.2-.1.4-.1.5-.2.1-.1.1.1-.1.2-.1 0-.1.1-.2.1-.1.1-.4.2-.4.3v.1s0 .1-.3.3c-.2.1-.2.1-.3.2l-.1.1c-.2.1-.2.1-.2.3 0 0 .1 0 .2.1.1 0 .5-.1 1-.2.5-.2 1-.3 1.3-.4.2 0 .4-.1.4-.1h.1l-.1.1c-.1.1-1.1.8-1.2.9l-.2.2c-.1.1-.1.1-.2.1l-.1.1-.1.1v.2h.4s.1 0 .1-.1c.1 0 .1 0 .2-.1 0 0 .1 0 .3-.1.2 0 .4-.1.6-.2.2-.1.3-.1.6-.2s.5-.1.6-.2h.1s-.1.1-.2.1c0 0-.8.6-.9.7l-.2.2c-.1.1-.2.1-.2.2h-.1s-.1 0-.1.1c-.1.1-.2.3-.2.3 0 .1.1.1.3.1.2 0 .4-.1.8-.2.2-.1.3-.1.4-.1 0 0 .1 0 .2-.1.1 0 .3-.1.4-.1.2 0 .4-.1.5-.1.1 0 .3-.1.3-.1h.1-.1l-.1.1s-.2.1-.3.1l-.1.1s-.1 0-.1.1c0 0-.1.1-.4.3-.1 0-.1.1-.2.1 0 0-.1 0-.1.1 0 0-.1.1-.2.1s-.2.1-.3.2c-.2.1-.2.1-.3.2 0 0-.1 0-.1.1V119.2c0 .1 0 .1.1.2l.1.1c.2.1 1.1-.1 2.1-.5 0 0 .1 0 .2-.1.1 0 .2-.1.3-.1.1 0 .1-.1.2 0v.1l-.3.3s-.1.1-.2.1c-.1.1-.3.2-.4.3-.1.1-.3.2-.3.2l-.4.2c-.1 0-.2.1-.2.1-.1 0-.2.1-.2.1h-.1s-.1.1-.2.1h-.1c-.1 0-.1 0 0 .1v.1h.1c.1 0 .2 0 .3-.1.1 0 .3-.1.4-.1.1 0 .2-.1.2-.1h.1c.1 0 .4-.1.6-.2h.2s.4-.1.4-.2c0 0 .1 0 .1-.1.3-.1.5-.2.5-.3l.1-.1h.4s.1 0 .1-.1l.1-.1c.1 0 .2 0 .2.1v.1l-.1.1c-.1.1-.3.3-.6.4-.1 0-.1.1-.2.1l-.2.2-.1.1V120.5c0 .1.2.1.4 0s.3-.1.3-.1h.1s.1-.1.3-.2c.1-.1.1-.1.6-.3.2-.1.3-.2.3-.2l.2-.2.5-.5c.1-.1.2-.3.2-.3V119c0 .1-.1.3-.1.4 0 0 0 .1-.1.1 0 .1-.1.1-.1.1s0 .1-.1.1l-.1.1v.2h.2c.1 0 .2-.1.2-.1h.1l.4-.2.1-.1.5-.5v-.1-.1l.1-.1c0-.1.1-.1.1-.3v-.2s0-.1-.1-.1c0 0-.1-.1-.2-.1l-.1-.1h-.1l-.1.1-.1.1h-.1v-.2c0-.2 0-.4-.1-.5v-.1s0-.1-.1-.1c0-.1-.1-.1-.1-.1v-.1l-.1-.1-.1-.1-.1-.1-.2-.2c-.1-.1-.2-.1-.2-.1h-.1l-.1-.1s-.1 0-.1-.1c0 0-.1-.1-.2-.1h-.1l-.2-.1h-.1l-.1-.1-.1-.1-.1-.1c-.1 0-.2-.1-.2-.1s-.1-.1-.4-.3c-.1 0-.2-.1-.2-.1l-.1-.1s-.1-.1-.2-.1-.2-.1-.3-.2c-.1 0-.1-.1-.2-.1l-.2-.2c-.2-.2-.3-.2-.4-.3-.1 0-.2-.1-.4-.2-.1-.1-.3-.1-.3-.2-.1 0-.2-.1-.3-.1-.1 0-.2-.1-.3-.1-.1-.1-.2-.1-.4-.2-.1 0-.2-.1-.2-.1h-.1-.1c-.1 0-.6-.3-.6-.3H105.4l.1-.1c0-.1-.1-.2-.1-.2s-.1-.1-.1-.2l-.1-.1c-.2-.1-.3-.2-.4-.2l-.1-.1-.1-.1-.1-.1h-.1s-.2-.2-.5-.3l-.2-.1.1-.1.1-.1c.3-.3.5-.5.7-.6l.1-.1h.1s.1-.1.3-.2c.1-.1.2-.1.2-.1.2-.1.2-.2.3-.2 0 0 .3-.2.5-.3.1 0 .2-.1.4-.2.1-.1.3-.2.3-.2.1 0 .1-.1.1-.1l.1-.1.1-.1s.1 0 .1-.1c.1 0 .1-.1.1-.1l-.4.4-.4.4-.2.2c-.1.1-.3.3-.6.5s-.4.3-.6.5l-.2.2c0 .1 0 .1.1.1h.2c.1 0 .5-.2.6-.3.3-.2.5-.3.8-.5.2-.1.3-.2.4-.2.2-.1.6-.3.7-.3l-.2.2-.4.4-.4.4-.4.4c-.2.3-.2.3-.3.3l-.1.1h-.1c-.1 0-.1.1-.1.1 0 .1.2.2.2.2h.1c.1 0 .1.1.2.1s.2.1.2.1c.1.1.5.4.5.4l.1.1.3.3c.1.1.4.3.4.3h.1s.1 0 .1.1l.1.1s.1.1.2.1.1.1.2.1c.1.1.4.2.5.4l.2.2c.1 0 .1.1.2.2.1 0 .1.1.2.1 0 0 .1.1.2.1l.1.1.3.3s.1.1.2.1.1.1.2.1c.5.4.6.5.6.5s.2.2.3.2c0 0 .1 0 .1.1l.2.2c.1 0 .2.1.2.2.1.1.4.3.4.4l.1.1.3.3c.1.1.2.3.3.3l.1.1h.1c.1 0 .5.4.5.5l.1.1c.1.1.1.2.1.2h.1s.1.1.2.1l.2.2c0 .1.1.1.1.2l.2.2c.1.1.1.2.1.2s0 .1.1.1c.1.1.2.3.3.5l.1.2c.1.1.1.2.1.2s.1.2.2.3c.1.1.1.2.2.3 0 .1.1.2.2.3.1.1.1.2.2.3 0 .1.1.1.2.2.1 0 .1.1.2.2l.3.3s.1 0 .1.1c0 0 .1.1.2.1.2.1.2.1.3.1.1 0 .3-.1.5-.2 0 0 .1-.1.2-.1s.1-.1.2-.1c0 0 .1-.1.2-.1s.1-.1.2-.1l.1-.1c.1-.1.1-.1.1-.2s-.1-.1-.3 0c-.2.1-.3.1-.6.1h-.3-.1s.2-.1.5-.2c.5-.2.6-.3.8-.5l.7-.7c.1-.1 0-.3-.1-.2-.1 0-.4.2-.5.3l-.1.1h-.1c-.1 0-.3.2-.4.2h-.1-.2s-.1 0-.3.1c-.1 0-.3.1-.3.1-.2.1-.4.1-.4.1s.2-.2.7-.5c.1-.1.2-.1.3-.2.2-.1.5-.3.6-.4.1-.1.5-.4.5-.5 0-.1.1-.1.2-.2s.1-.1.1-.5v-.3c0-.1-.1-.1-.1-.1l-.1.1c-.1.2-.3.3-.4.4-.1 0-.1.1-.2.1 0 0-.1.1-.2.1s-.2.1-.2.2c-.1.1-.2.2-.3.2-.1 0-.2.1-.2.2-.1 0-.2.1-.2.1-.1 0-.1.1-.2.1s-.2.1-.4.1H116.5l.1-.1s.1 0 .1-.1l.4-.2c.1-.1.2-.2.3-.2.2-.1.4-.3.4-.3l.1-.1c.1 0 .1-.1.1-.1l.1-.1c.1-.1.2-.1.2-.2s.1-.1.1-.1l.1-.1.1-.1s.1-.1.1-.2c.1-.2.2-.4.2-.5 0-.1.1-.2.1-.4 0-.1 0-.1-.1-.1h-.1s-.1 0-.1.1l-.1.1s-.1.1-.2.1l-.1.1-.1.1s-.1.1-.2.1c-.2.2-.4.4-.5.4 0 0-.1.1-.2.1 0 .1-.1.1-.1.1l-.1.1c-.3.2-.4.3-.9.4-.1 0-.2 0-.2.1l-.3.1s.2-.1.3-.3l.2-.2c.1-.1.3-.2.4-.3.2-.1.3-.2.6-.4 0 0 .1-.1.2-.1l.1-.1s.1 0 .1-.1l.2-.3s0-.1.1-.1c0-.1.1-.2.2-.3 0-.1.1-.2.1-.3l.1-.1v-1l-.1-.1c0-.1-.1-.2-.1-.2v-.2-.1c0-.1-.2-.5-.3-.7-.1-.3-.2-.4-.2-.4s0-.1-.1-.1c0 0-.1-.1-.1-.2s-.1-.1-.1-.2l-.1-.1s-.1-.1-.1-.2c-.1-.1-.3-.4-.4-.5l-.1-.1s-.1-.1-.2-.1l-.3-.3c-.3-.2-.5-.4-.5-.3l-.3-.2h-.1c-.1 0 0 0 0 0h-.1s-.1 0-.1-.1c-.1 0-.1-.1-.1-.1s-.3-.2-.4-.2l-.1-.1-.1-.1-.1-.1-.1-.1s-.1 0-.1-.1l-.2-.2c-.1 0-.2-.1-.2-.2 0 0-.2-.1-.3-.2-.1-.1-.3-.2-.3-.3-.1-.1-.1-.1-.2-.1l-.2-.2c-.1-.1-.2-.1-.2-.1l-.1-.1c-.2-.1-.3-.3-.4-.4-.1-.1-.2-.1-.2-.2-.1-.1-.5-.4-.6-.4-.1 0-.1-.1-.2-.1 0 0-.1-.1-.2-.1-.1-.1-.5-.4-.6-.5l-.4-.4-.1-.1c-.1 0-.2-.2-.3-.3-.1-.1-.3-.2-.3-.3-.1-.1-.2-.1-.2-.2-.1-.1-.2-.3-.2-.3v-.1-.1-.1s0-.1-.1-.2c0-.1 0-.2-.1-.2v-.1c0-.1-.2-.5-.3-.5l-.1-.1c-.1-.1-.2-.3-.3-.4l-.1-.1-.1-.1c-.1-.1-.1-.2-.1-.2l.4-.2c.1 0 .2-.1.3-.1.1-.1.3-.1.4-.2.1 0 .3-.1.5-.2s.3-.1.3-.1.1-.1.2-.1c.3-.1.7-.4.7-.3 0 0-.3.3-.6.5-.1.1-.3.2-.4.3l-.2.2c-.1.1-.2.1-.2.2-.1 0-.1.1-.1.1v.2c0 .1-.1.1-.1.1 0 .1 0 .1.1.2v.1h.2c.2 0 .3-.1.7-.2.1 0 .2-.1.5-.2.1 0 .3-.1.4-.1.3-.1.8-.4.9-.5l.2-.1v.1l-.3.3s-.1 0-.1.1l-.1.1c-.1 0-.1.1-.1.1s-.1 0-.1.1c0 0-.1.1-.2.1-.1.1-.2.1-.2.1h-.1s-.1.1-.3.2c-.3.2-.4.3-.4.4v.2c0 .1.1.2.2.2s.4 0 .7-.1c.1 0 .3-.1.4-.1.2 0 .5-.1.6-.2.2-.1.1 0-.1.2-.2.1-.6.5-.6.5s-.3.2-.3.3c-.1.1 0 .1 0 .2h.3c.2 0 .3 0 .4-.1.1 0 .2-.1.3-.1.1 0 .4-.1.6-.2.4-.1.7-.2.7-.2v.1l-.1.1-.1.1c-.1 0-.2.1-.2.2-.1.1-.2.1-.2.2 0 0-.1.1-.2.1-.1.1-.2.1-.4.3-.1.1-.1.2-.1.3 0 .1.1.1.2.1s.2 0 .5-.1c.2 0 .2-.1.3-.1.1 0 .3 0 .5-.1s.5-.2.5-.2l-.1.1c-.1 0-.1.1-.2.2s-.2.2-.4.3c-.1.1-.2.1-.3.2l-.2.2-.1.1s0 .1-.1.1l-.1.1c0 .1.1.1.1.1.1 0 .2 0 .3-.1.1 0 .4-.1.5-.1.2 0 .4-.1.5-.2.1 0 1.1-.4 1.1-.4s-.1 0-.1.1l-.3.3-.2.2c-.1 0-.1.1-.2.1s-.2.1-.4.3c-.1 0-.1.1-.2.2-.2.1-.2.2-.2.2s0 .1.1.2.1.1.2 0 .2-.1.4-.2c.3-.1.7-.2.8-.3 0 0 .2-.1.3-.1.1 0 .4-.2.6-.2.2-.1.4-.2.5-.2.1 0 .1-.1.1-.1l-.1.1c-.1 0-.2.2-.3.3-.2.2-.4.4-.6.5l-.2.2c-.1.1-.3.2-.3.2s-.3.2-.4.3l-.2.2.1.1.1.1.2.2c.1.1.2.1.2.1h.1s.1.1.2.1.2.1.2.1l.4.2c.2.1.9.5 1.1.6.1.1.4.3.8.8l.4.4c.1 0 .8-.2.9-.2.1 0 .4-.4.5-.5l.1-.1h-.3c-.1 0-.3.1-.4.1 0 0-.2 0-.3.1-.2.1-.3.1-.3 0-.1 0-.2-.1-.2-.2s.1-.1.5-.3l.4-.2c.1 0 .2-.1.3-.2.1-.1.2-.2.3-.2.1-.1.2-.1.2-.2.1 0 .1-.1.1-.1s.1-.1.2-.1c.1-.1.3-.2.3-.3l.2-.2c.3-.3.3-.4.4-.5 0-.1.1-.1.1-.1v-.1c.1-.1.2-.3.2-.4l.1-.2.1.1v.2c0 .2-.1.5-.3.9-.1.2-.2.3-.2.4l-.1.1s0 .1-.1.1v.1l-.1.1-.1.1s0 .1-.1.1c0 0 0 .1-.1.1s0 0 0 .1v.2s0 .1.1.1h.1c.1 0 .1 0 .3-.1.3-.2.5-.3.7-.5l.1-.1s0-.1.1-.1c0 0 0-.1.1-.1 0 0 0 .1-.1.3-.1.2-.1.3-.2.5 0 .1-.1.2-.1.2s-.1.1-.1.2-.1.2-.3.4l-.4.4s-.1 0-.1.1c-.1 0-.1.1-.2.1h-.1l-.2.1s-.1.1-.2.1-.2.1-.3.1c-.1 0-.1.1-.2.1 0 0-.1.1-.2.1-.1.1-.2.1-.2.1v.2h.7c.2 0 .7-.2.9-.3.1-.1.2-.1.3-.2.1 0 .2-.1.4-.2.1 0 .2-.1.2-.1h.1s.1 0 .1-.1c.1-.1.4-.2.4-.2l-.6.6c-.1.1-.2.2-.3.2 0 0-.2.1-.3.2-.1 0-.3.1-.4.2-.1.1-.2.2-.3.2-.1 0-.2.1-.2.1s-.1.1-.2.1c-.2.1-.3.2-.3.3 0 .1 0 .2.1.2.1.1.2.1.4.1.1 0 .3-.1 1-.3.4-.1.9-.3.9-.3h.1l-.1.1c0 .1-.1.1-.1.1l-.1.1-.2.2s-.1.1-.3.1c0 0-.1.1-.2.1s-.2.1-.3.2c-.5.2-.6.3-.7.4l-.1.1s.1.2.1.3v.1h.5c.1 0 .5-.1.8-.3.1 0 .2-.1.3-.1.1 0 .1-.1.2-.1h.2c.1 0 .3 0 .4-.1l.3-.1-.2.2-.2.2-.5.4s-.1 0-.1.1c-.2.1-.4.3-.7.4-.1 0-.1.1-.2.1l-.1.1s-.1.1-.2.1l-.1.1c-.1 0-.2.1-.2.1 0 .1 0 .2.1.2 0 0 .2.1.3.1.3 0 .5-.1.8-.3.1-.1.2-.1.2-.1h.1c.1 0 .1 0 .2-.1l.4-.2c.4-.2.7-.4.8-.4.1 0 .3-.2.5-.3l.1-.1h.1s-.1.2-.1.3c-.1.1-.2.3-.3.4 0 .1-.1.1-.1.1-.1.1-.5.5-.7.6-.1.1-.2.1-.2.1h-.1-.1s-.4.2-.5.2c-.1 0-.2.1-.2.1s-.1 0-.1.1h-.1c-.1 0-.4.1-.4.2-.1.1-.1.1 0 .2s.2.1.3.1c.2 0 .4-.1.6-.2h.1c.1 0 .4-.1.8-.3.2-.1.3-.2.6-.4.1-.1.2-.1.2-.1l.2-.2c.2-.2.4-.4.5-.6l.1-.1v-.4-.6c0-.2-.1-.4-.2-.6v-.1c0-.1-.1-.2-.2-.7 0-.1-.1-.3-.1-.3 0-.1-.1-.2-.2-.4-.1-.3-.2-.6-.2-.8 0-.2-.1-.5-.2-.6-.1-.2-.1-.3-.2-.6 0-.1-.1-.2-.1-.2v-.1-.1s0-.1-.1-.1c0-.1 0-.1-.1-.2v-.1s0-.1-.1-.2c0-.1-.1-.2-.1-.2v-.1s-.1-.1-.1-.2-.1-.1-.1-.1 0-.1-.1-.1c0-.1-.1-.2-.1-.2 0-.1-.1-.2-.1-.2v-.1s0-.1-.1-.1c0 0 0-.1-.1-.2v-.1-.1-.1-.1c0-.1 0-.1-.2-.3-.1-.2-.1-.2-.2-.2 0 0-.1-.1-.1-.2-.1-.2-.5-.6-.7-.8l-.2-.2c-.4-.3-.6-.5-1.2-.9-.7-.5-.8-.6-1-.7-.1 0-.2-.1-.3-.2-.1-.1-.2-.1-.2-.1s-.1 0-.1-.1c-.2-.1-.5-.3-.6-.3l-.6-.3s-.2-.1-.3-.2c-.2-.1-.3-.2-.3-.2s-.1 0-.1-.1c0 0-.3-.1-.6-.3-.4-.2-.5-.2-.5-.3l-.1-.1c-.1 0-.5-.2-.7-.3-.2-.1-.3-.2-.4-.2-.1 0-.2-.1-.4-.2-.1-.1-.3-.2-.4-.2-.2-.1-1-.5-1.1-.5 0 0-.1-.1-.2-.1-.1-.1-.2-.1-.3-.2-.2-.1-.3-.2-.5-.3-.2-.1-.6-.4-.6-.5 0 0-.1-.1-.2-.1-.1-.1-.2-.1-.2-.2-.1-.1-.3-.3-.5-.4l-.1-.1-.4-.3s-.1 0-.1-.1c-.1-.1-.6-.3-.6-.3l-.4-.2c-.1 0-.5-.2-1-.3-.1 0-.2-.1-.3-.1-.2-.1-.4-.1-.5-.1h-.3c-.2-.1-.9-.2-1.1-.2-.2 0-.7-.1-1.3-.1h-.9-.7c-.3 0-.7.1-.8.1h-.1-.1-.1s-.5.1-.7.2c-.1 0-.1.1-.2.1h-.1c-.1 0-.4.2-.6.2-.1 0-.2.1-.2.1-.1.1-.3.2-.4.2V98l.1-.1c.1-.2 0-.4-.3-.4h-.1-.1s-.1 0-.1.1c0 0-.1.1-.5.2-.1 0-.2.1-.2.1s-.1 0-.1.1c0 0-.1 0-.1.1 0 0-.1 0-.2.1-.3.1-.4.2-.5.2 0 0-.1.1-.2.1-.1.1-.2.1-.2.1H95s-.1 0-.1.1c-.2.1-.4.2-.5.2h-.1v-.1l.1-.1s.2-.2.3-.4c.1-.2.3-.3.3-.4.1-.1.1-.1 0-.2s-.2-.1-.2-.1h-.1s-.1.1-.3.2c-.1 0-.2.1-.2.1-.1 0-.1.1-.2.1 0 0-.1 0-.1.1-.1 0-.3.1-.5.2-.1 0-.2.1-.2.1s-.1.1-.2.1-.2.1-.2.1h-.1s-.2.1-.3.2h-.1-.1c-.1 0-.3.2-1.1.6-.2.1-.3.1-.3.1l.7-.7c.1 0 .2-.1.3-.2.1-.1.2-.2.3-.2.1-.1.2-.1.3-.2.2-.2.2-.3.1-.5-.1 0-.1-.1-.2-.1s-.1 0-.3.1c-.1 0-.3.1-.4.2-.1.1-.3.1-.4.2-.1 0-.2.1-.3.1-.1 0-.1.1-.2.1-.2.1-.3.1-.4.2 0 0-.1 0-.2.1-.3.1-.5.2-.6.2h-.1.1l.1-.1s.1-.1.8-.6l.6-.6-.1-.2c0-.1-.4 0-.7.1-.1.1-.2.1-.3.1 0 0-.1 0-.1.1h-.1s-.1.1-.2.1c0 0-.3.2-.6.3h-.6l.1-.1s.1-.1.1-.2c.1 0 .2-.2.2-.2.1-.2.2-.2.3-.3l.1-.1V97c0-.1 0-.1-.1-.2 0-.1-.1-.1-.1-.1h-.1-.1s-.1 0-.1.1l-.1.1-.9.3c-.1.1-.5.2-.6.2h-.1c.1 0 .1-.1.3-.3.1-.1.2-.1.2-.1.2-.1.4-.3.4-.4v-.1-.1-.1h-.4c-.1 0-.2 0-.3.1-.1 0-.3.1-.4.2l-.4.2c-.3.2-.4.2-.8.4-.2.1-.3.2-.4.2 0 0 .1-.2.2-.5 0-.1.1-.1.1-.2.1-.2.1-.2-.2-.2-.3 0-.7 0-.7.1-.1 0-.7.3-.7.3s-.1 0-.2.1c-.1 0-.2.1-.2.1s0-.1.1-.2c.1-.2.1-.3 0-.3h-.3c-.3 0-.6 0-.6.1h-.1-.1s-.3.1-.4.2c0 0-.1 0-.2.1-.1 0-.2.1-.2.1-.1.1-.1 0 0-.1.1-.2.2-.4.1-.4h-.9c-.1 0-.3.1-.3.1s-.1 0-.2.1c-.1 0-.2.1-.3.1 0 0-.3.1-.4.1h-.1s.1-.2.1-.3v-.1h-7s-.1 0-.2.1c-.1 0-.3.1-.5.2-.1 0-.1.1-.2.1s-.4.1-.8.3c-.1.1-.2.1-.2.1s-.1.1-.3.1c-.2.1-.3.1-.3.1s-.1 0-.1.1c-.2.1-.3.2-.4.2-.1 0-.1 0 0-.1l.1-.1.2-.2.2-.2.1-.1c.1-.1.6-.6.8-.7 0 0 0-.1.1-.1.1-.1 0-.1-.1-.1-.2 0-.3 0-.5.1-.1 0-.2.1-.3.1-.1 0-.2.1-.4.1 0 0-.1 0-.1.1 0 0-.1.1-.2.1s-.2.1-.2.1-.1 0-.2.1c-.1 0-.2.1-.3.2-.1.1-.4.2-.5.3 0 0-.1.1-.3.1-.3.1-.6.3-.6.3l.2-.2.6-.6c.1-.1.2-.2.3-.2.2-.2.4-.3.5-.4.1-.1.1-.1-.3-.1h-.3l-.2.1c-.4.2-.7.3-.9.4-.1 0-.3.1-.4.2-.1.1-.3.1-.3.1-.1 0-.2.1-.3.1-.1 0-.2.1-.2.1s-.1 0-.2.1c-.3.2-.7.3-.8.3l.4-.4c.1-.1.4-.3.7-.6.3-.3.4-.3.4-.4l.1-.1-.4-.1H66l-.4.2-.4.2c-.1 0-.4.2-.4.2h-.1-.1s-.4.1-.5.2c-.1.1-.3.1-.5.2-.1 0-.3.1-.4.2h-.1c-.1 0-.1.1-.2.1 0 0 .1-.2.3-.4.2-.2.7-.6.7-.6h.1l.2-.2.1-.1.1-.1s.2-.1.2-.2v-.1h-.1-.2c-.1 0-.2 0-.3.1 0 .1 0 .1-.1.1h-.1s-.1 0-.2.1c-.1 0-.3.1-.3.2l-.6.3h-.1s-.1.1-.2.1l-.1.1-.4.2h-.1c-.1 0-.5.2-.6.3 0 0-.1.1-.2.1s-.1.1-.2.1c-.1.1-.2.1-.2 0l.2-.2.2-.2.3-.3c.1-.2.2-.2.5-.4.2-.1.3-.3.4-.4v-.3h-.1-.1-.1s-.4.1-.5.2c0 0-.1.1-.2.1s-.2.1-.3.2c-.1 0-.2.1-.2.1-.1 0-.1.1-.2.1h-.1-.1-.1s-.1 0-.1.1l-.1.1h-.1s-.1.1-.2.1c-.1.1-.2.1-.2.1s-.1 0-.2.1c-.2.1-.3.2-.3.2-.1 0-.1 0-.1-.1 0 0 .1-.2.3-.3l.4-.4.2-.2.1-.1.2-.2c.1-.1.2-.2.2-.3v-.1h-.7l-.3.2c-.6.3-.7.4-.8.4l-.1.1c-.1.1-.4.2-.5.3l-.1.1h-.1l-.1.1h-.1v-.1s-.1-.1-.1-.2v-.2c0-.2 0-.2.1-.3v-.1s0-.1.1-.1l.1-.1h-.1-.1s-.1 0-.1-.1v-.1-.1-.1-.3-.2-.1-.1-.1c0-.1 0-.1.1-.2H68.3c.3 0 .7.1 2.5.1h1.7s.1 0 .7.1H73.8c.2 0 .5 0 .7.1.1 0 .5 0 .9.1h1.5s.6.1.7.1H84.3c.1 0 .3 0 .6-.1.3 0 .5-.1.6-.1.1 0 .3-.1.6-.1.2 0 .6-.1.6-.1h.1s.1 0 .2-.1h.1s.1 0 .1-.1c.1 0 .1-.1.2-.1 0 0 .1 0 .2-.1s.1-.1 0-.4c-.1-.2-.1-.4-.1-.6 0-.3 0-.4.1-.7 0-.1.1-.2.1-.2l.2-.2H89c.3 0 .4-.1.5-.1h.2c.2 0 .8-.2.9-.2.1 0 .2-.1.3-.1.2-.1.6-.2.7-.3.2-.1.7-.3.7-.3l.2-.1c.1 0 .2-.1.4-.2s.6-.4.7-.4c.3-.2.6-.3.8-.4.1-.1.3-.2.5-.3.1-.1.3-.2.4-.2.2-.1.3-.2.5-.2.4 0 1.7 0 1.9.1h1.2c.1 0 .7.1.9.2h.4s.1 0 .2.1c.1 0 .3.1.7.1h.8c.2 0 .5.1.8.1h.3c.1 0 .4 0 .7.1h1.1c.3 0 .6 0 1.2.1h1.9c.2 0 .7.1.9.1h1c.2 0 .6.1.7.1h.2s.1 0 .2.1c.1 0 .2.1.3.1.1 0 .2 0 .2.1 0 0 .1 0 .2.1 0 0 .1 0 .1.1h.1s.1 0 .2.1c.1 0 .2.1.2.1.1 0 .1.1.2.1h.2s.1.1.2.1.2.1.3.1c.1 0 .1.1.2.1h.6s.1 0 .1.1c.1 0 .1 0 .2.1h.5s.2.1.3.1h.1c.1 0 .2.1.3.1.2.1.3.1.5.2.1 0 .2.1.4.1s.4.1.6.1c.1 0 .3.1.3.1s.1 0 .2.1c.1 0 .1 0 .1.1h.4c.1 0 .2 0 .2.1h.2c.1 0 .2.1.3.1 0 0 .1 0 .2.1.1 0 .2.1.2.1h.6s.2.1.3.1H120.2c.1 0 .2.1.3.1h.2c.1 0 .2.1.3.1.1 0 .2.1.3.1.1 0 .4.1.5.1 0 0 .1 0 .2.1.2.1.4.1.5.1.1 0 .3 0 .4.1.1 0 .3.1.4.1h2.6c.2 0 .4 0 .6.1h1c.3 0 .4 0 .7.1.1 0 .4.1.7.1.1 0 .2 0 .2.1.1 0 2.7.1 3.1 0h1c.4 0 1-.1 1.2-.1h.3c.1 0 1.2-.1 1.5-.1h.4c.2 0 1.3 0 1.3.1h1.1c.5 0 1.1-.1 1.4-.1H141.8c.1 0 1.2 0 1.6-.1h3.6c.9 0 1.4 0 1.9-.1h11c.3 0 2.2-.1 2.2 0 0 0 0 .3-.1.6v.2l-.1.1c-.2.1-.2.2-.3.2h-.1l-.2.1c-.1 0-.3.1-.3.2l-.4.2c-.1 0-.2.1-.3.1-.1 0-.2.1-.3.1-.1 0-.1 0-.3.1-.1 0-.4.1-.4.1.1 0 .4-.6.5-.7 0 0 0-.1-.1-.1-.1-.1-.3 0-.5.1s-.7.3-.8.4c0 0-.2.1-.3.1-.1.1-.3.2-.4.2-.1.1-.2.1-.3.1h-.1l.1-.1c.3-.3.5-.5.5-.6 0-.2 0-.2-.1-.2h-.3l-.2.1h-.1s-.1 0-.1.1c-.1.1-.3.2-.4.2 0 0-.1.1-.2.1s-.1.1-.1.1-.2.1-.5.3l-.2.1h-.4l.2-.2c.3-.3.3-.4.4-.5 0-.1.1-.2.1-.2 0-.1-.1-.2-.1-.2s-.2 0-.4.1-1.6 1-1.8 1.1h-.2l.1-.1.3-.3c.1-.1.2-.3.2-.3h.1v-.1c0-.1 0-.2-.1-.2H151.2 150c-1.1 0-1.2 0-1.7.1-.3 0-.6.1-.6.1h-.3c-.2 0-.6 0-.7.1 0 0-.1 0-.3.1-.1 0-.2.1-.2.1h-.1-.1s-.1 0-.1.1c-.1 0-.1.1-.1.1s-.1 0-.1.1c-.1 0-.2.1-.2.1-.1 0-.2.1-.3.1-.1.1-.2.1-.2.1s-.1 0-.1.1c-.1 0-.2.1-.3.2-.1 0-.2.1-.2.1s-.1.1-.2.1l-.1.1s-.2.1-.3.2h-.1v-.1l.1-.1.1-.1.1-.1c.1-.2.3-.3.4-.5.1-.1.2-.2.2-.3v-.1h-.8c-.3 0-.7.1-.8.2 0 0-.1.1-.2.1-.2.1-.7.3-.9.4-.1.1-.2.1-.3.2-.1.1-.2.1-.2.1-.1.1-.2.1-.2 0v-.1-.1-.1-.1-.1c0-.1.1-.1.1-.2 0 0 0-.1.1-.1.1-.1.1-.1-.1-.2-.1-.1-.2-.1-.5.1-.2.1-.3.1-1 .5-.9.5-.9.5-1 .5l-.1.1s-.1.1-.2.1c-.1.1-.2.1-.3.1l.2-.2c.1 0 .2-.1.3-.2.2-.2.5-.6.5-.6 0-.1 0-.1-.4-.1h-.5-.1s-.1 0-.2.1c-.1 0-.2.1-.3.2-.1.1-.2.1-.2.1s-.1.1-.2.1-.4.2-.7.4c-.6.3-.7.4-1.1.5-.4.2-.6.2-.6.2l.3-.3.2-.2c.1-.1.2-.2.3-.2l.5-.5c.1-.2.1-.3 0-.4-.1 0-.2 0-.4.1-.1 0-.2.1-.2.1-.3.1-.6.2-.8.4-.1 0-.2.1-.2.1-.1 0-.2.1-.3.2h-.1s-.1.1-.2.1-.2.1-.2.1c-.1 0-.2.1-.2.1-.1 0-.2.1-.3.2-.3.2-.7.4-.8.5 0 0-.3.2-.5.3-.4.2-1.4.8-1.4.7l.2-.2.3-.3c.1-.1.2-.1.3-.2.1 0 .1-.1.2-.1.1-.1.2-.2.3-.2 0 0 .1-.1.2-.1l.3-.3c.3-.2.6-.6.7-.7 0-.1.2-.2.3-.3l.3-.3s-.3-.1-.5-.1c-.1 0-.2 0-.4.1-.1.1-.3.1-.3.1h-.1l-.2.2c-.6.3-.9.6-1.1.7-.1.1-.2.2-.3.2-.1 0-.1.1-.2.1-.1.1-.3.3-.4.3-.1 0-.2.1-.3.2-.1.1-.2.2-.3.2-.1.1-.2.2-.4.3-.1.1-.2.2-.5.3-.3.2-.4.3-.4.3s-.3.1-.4.2c-.1 0-.1.1-.1.1l1.8-1.8c.1-.1.3-.2.4-.3l.3-.3c.1-.1.1-.2.2-.2l.1-.1s.1-.1.1-.2.1-.1.1-.1v-.1-.1c0-.1-.1-.1-.2-.1h-.1-.1-.1s-.1 0-.1.1c-.1 0-.2.1-.2.1-.1 0-.2.1-.3.2-.1.1-.3.2-.3.2l-.4.3h-.1c-.3.2-.4.2-.4.2s-.1 0-.1.1c-.1.1-.2.1-.5.3-.1 0-.1.1-.1.1s-.1 0-.2.1-.1.1-.1 0 .4-.4.6-.5l.1-.1.2-.2c.2-.2.3-.3.3-.4v-.1s0-.1-.1-.1h-.2s-.1 0-.2.1c-.1 0-.1.1-.2.1l-.1.1c-.1.1-.2.1-.3.2 0 0-.1.1-.2.1s-.2.1-.2.1c-.1 0-.1.1-.2.1 0 0-.1.1-.2.1-.2.2-.3.2-.3.1 0 0 0-.1.1-.3.1-.2.3-.5.4-.6V95.8h-.4s-.1.1-.2.1l-.2.2c-.1.1-.2.2-.3.2l-.2-.2c-.2-.2-.4-.4-.5-.4-.1 0-.2.1-.2.1v.1l.1.1.1.1s0 .1.1.1c.1.1.3.4.5.8s.3.8.5 1.4c0 .1 0 .2.1.3v.3h-.1c-.1-.1-.2-.3-.2-.3v-.1l-.1-.1s-.1-.2-.2-.3c0-.1-.1-.2-.2-.3 0-.1-.1-.2-.1-.2s-.1-.1-.1-.2-.1-.2-.1-.2v-.1l-.2-.2c-.1-.1-.2-.2-.2-.3-.1-.2-.4-.5-.6-.7-.1-.1-.4-.3-.5-.4-.1 0-.2-.1-.3-.1h-.1c-.2-.1-.8-.1-1.2-.1h-.5-.1l.1-.2c.1-.2.1-.2 0-.3 0 0 0-.1-.2-.1h-.4c-.1 0-.6.2-.6.2h-.4s0-.1.1-.1c.1-.1.2-.2.2-.4v-.1s0-.2-.1-.2c0-.1-.1-.1-.2-.1s-.5.1-.6.1c0 0-.1 0-.2.1-.2.1-.5.2-.5.2H118.5l.1-.1.2-.2c.2-.1.3-.3.3-.3v-.2c0-.1 0-.1-.1-.1h-.2c-.2 0-.6.1-.8.2-.1 0-.2.1-.2.1-.1 0-.2.1-.2.1h-.1-.1c-.1.1-.4.1-.4.1s0-.1.1-.1.1-.1.1-.2l.1-.1c.1 0 .1-.3.1-.4v-.2h-.5-.1c-.1 0-.3.1-.5.1-.1 0-.3.1-.4.1-.1 0-.2.1-.3.1 0 0-.1 0-.2.1 0 0-.1 0-.1.1h-.1v-.1s.1-.1.1-.2c.2-.2.3-.4.3-.5 0-.1 0-.1-.1-.1 0 0-.1 0-.1-.1l-.1-.1s-.1 0-.3-.1c-.1 0-.3-.1-.3-.1-.5-.1-1.2-.3-1.2-.4 0 0-.1-.1-.3-.1-.1 0-.3-.1-.3-.1s-.3-.1-.4-.1c0 0-.1 0-.1-.1-.1-.1-.4-.2-.5-.2-.1 0-.2 0-.2-.1-.1-.1-.2-.2-.5-.2-.1 0-.1 0-.1-.1 0 0-.7-.2-1-.2-.4-.1-.6-.1-.6-.1h-.5c-.1 0-.5 0-.9-.1h-.7-.8-.5c-1.1 0-1.6 0-1.7-.1h-.4c-.3 0-.6-.1-.7-.1H103h-.1c-.1 0-.9-.1-1.4-.2-.4-.1-.4-.1-.7-.2-.1 0-.3-.1-.4-.1-.1 0-.3-.1-.4-.1-.3-.1-.5-.2-.6-.2-.2 0-.5-.1-.5-.2h-.2c-.1 0-.1 0-.2-.1-.1 0-.1-.1-.2 0 0 0-.5-.1-.5-.2l-.3-.1h-.1-.4c-.1 0-.4 0-.6.1H96c-.2.1-.3.1-.4.2 0 0-.1.1-.2.1-.2.1-.6.5-.6.5l-.1.1c-.1.1-.2.5-.2.8-.1.3-.1.5-.1.6 0 0-.1.1-.1.2-.1 0-.1.1-.2.2-.1 0-.2.1-.3.2-.1.1-.2.1-.2.1h-.1s-.1 0-.1.1c0 0-.2.1-.3.2-.2.1-.3.2-.4.2 0 0-.1 0-.2.1-.1 0-.2.1-.2.1-.1 0-.2 0-.3.1h-.6c-.5 0-.6 0-.8-.1-.1-.1-.3-.2-.8-.5l-.2-.1h-.1c-.1 0-.2 0-.5.1-.1 0-.2 0-.3.1-.2 0-.3 0-.3.1-.1.1-.1.1 0 .4 0 .2.1.5.1.5s0 .1.1.1c.1.2.2.5.3.6 0 .1.1.1.1.1s.1.1.1.2c.1.1.1.2.1.2s.2.2.4.3c.1.1.2.1.3.2.1.1.2.1.4.2.1 0 .2.1.3.1.1 0 .1.1.1.1h.2c.1 0 .2 0 .2.1.1 0 .3.1.5.1h.5c.1 0 .2.1.4 0h2.1c.5 0 .9-.1 1.1-.1.3-.1.8-.2.9-.3.1 0 .2-.1.2-.1.1 0 .2-.1.4-.2s.4-.2.4-.3c0 0 .1-.1.2-.1s.2-.1.3-.2c.1 0 .1-.1.1-.1s.1 0 .1-.1l.1-.1s.3-.2.3-.3c0-.1.1-.2.2-.3.3-.4.5-.6.7-1 .2-.4.3-.7.3-1 0-.3.1-.4.1-.4s.1.2.2.5l.2.6c.1.2.1.2.3.1.1 0 .2 0 .3-.1.1 0 .3-.1.4-.1.1-.1.3-.1.3-.1h.1-.1l-.2.2-.2.2-.1.1s-.1 0-.1.1c-.1.1-.6.5-.8.6 0 0-.1.1-.2.1-.1.1-.1.1-.1.2s0 .2.1.3c.1.1.4 0 1.2-.4l.8-.4s-.6.9-.7.9v.2c-.1.1-.1.2 0 .2l.1.1h.1c.1 0 .2 0 .3-.1.1 0 .2-.1.2-.1h.1s.1-.1.3-.1c.1-.1.3-.2.4-.2.1-.1.3-.2.4-.3.1-.1.3-.2.4-.3.2-.1.5-.3.6-.3 0 0 0 .1-.1.2-.2.2-.4.5-.5.7 0 .1-.1.1-.1.2 0 0 0 .1-.1.1v.2s0 .1.1.1c.1.1.3 0 .5 0 .2-.1.7-.3.7-.4l.4-.2c.5-.3.6-.4.8-.5.1-.1.2-.1.2-.1s-.1.2-.7 1c-.1.2-.2.2-.1.3 0 .1 0 .1.1.1.2.1.2.1.4 0 .1-.1.2-.1.3-.1 0 0 .1-.1.2-.1.2-.1.3-.1.4-.2.1-.1.8-.5.8-.5s.1 0 .1-.1c.1 0 .2-.1.3-.2.1-.1.2-.1.3-.2l-.6.6-.7.7v.1c-.1.1 0 .1.1.2h.2c.3-.1.5-.2.5-.2s.1 0 .2-.1c.1 0 .2-.1.3-.1.1 0 .2-.1.3-.2.1-.1.3-.1.3-.2.1 0 .1-.1.2-.1.1-.1.3-.2.4-.2v.1l-.1.1c-.1.1-.4.3-.6.4 0 0-.1 0-.1.1l-.2.2h-.1l-.1.1s-.1 0-.1.1c-.1.1-.1.2-.1.4 0 .1 0 .1.1.1s.2 0 .4-.1c.1-.1.2-.1.3-.1h.2c.1 0 .4-.2.5-.2.1-.1.4-.2.4-.2 0 .1-.3.4-.4.4l-.1.1c-.1 0-.1.1-.2.1s-.2.2-.2.2c0 .1 0 .2.1.2v.1s.4.3.6.5c.1 0 .2.1.3.2l.2.2.1.1s.1 0 .1.1c0 0 .2.1.3.2.1.1.3.2.4.2.1.1.2.1.2.1h.1s.6.3.7.3h.1c.1 0 .3-.1.3-.1s.1-.1.2-.1.2-.1.3-.1c.1-.1.7-.3.8-.3.1 0 .1 0 0 .1l-.4.4c-.2.1-.3.2-.3.3V98.2l.1.1h.2s.1 0 .2-.1c.2-.1.5-.1.6-.2.1-.1.5-.2.7-.2h.1l-.1.1c-.1.1-.2.3-.2.3v.2s0 .1-.1.1v.1c0 .1.1.2.2.2 0 0 .1 0 .1-.1.1 0 .2-.1.2-.1h.2s.1 0 .2-.1c.1 0 .7-.3.8-.3 0 0 .1 0 .2-.1.1 0 .2-.1.4-.2s.3-.1.4-.1h.1l-.1.1-.1.1-.1.1c0 .1-.1.1-.1.1l-.1.1c-.2.2-.4.4-.5.4-.1 0-.2.1-.2.2-.1.1-.2.1-.2.1s-.1 0-.1.1v.3l.1.1c.2.1.6 0 1.2-.4.2-.1.3-.2.3-.2s.7-.4 1-.5c.1-.1.2-.1.2-.1l-.1.1c-.1.1-.1.1-.3.4l-.6.6-.1.1s0 .1-.1.1c-.1.1-.4.5-.4.5 0 .1.1.2.3.3h.3c.1 0 .2 0 .4-.1.1-.1.3-.1.3-.2.5-.3.7-.4 1.1-.6.3-.1.6-.3.6-.3h.1l-.2.2-.4.4-.3.3c-.4.3-.7.6-.7.7 0 0 0 .1.1.1s.2.1.2.1c.1.1.2.1.3.1h.1c.1 0 .4-.2.8-.5.1-.1.2-.2.3-.2.2-.1 1-.7 1.2-1 .1-.1.2-.2.3-.2 0 0 0 .1-.1.1l-.1.1-.2.2c-.1.1-.2.2-.2.3-.1.1-.2.2-.2.3l-.1.1c0 .1-.3.3-.4.4-.2.2-.3.2-.6.5l-.3.3.1.1c.1.1.2.1.2.1s.1 0 .3-.1c.1-.1.3-.1.4-.2.3-.1.8-.5 1.1-.7.1-.1.2-.2.3-.2.1-.1.3-.2.4-.3.1-.1.3-.2.3-.3.1 0 .3-.2.4-.4l.3-.3c0 .1-.2.5-.4.7l-.1.1-.1.1-.1.1s-.1.1 0 .1c0 0-.2.1-.2.2v.1s-.2.1-.2.2h-.1-.1c-.1.1-.6.7-.8.8l-.1.1-.1.1-.2.2c-.1.1-.1.1-.2.1l-.1.1.1.1c.2.1.4.3.4.3h.1c.1 0 .4-.2.6-.3.1-.1.2-.2.3-.2l.1-.1.1-.1.1-.1c.1 0 .1-.1.1-.1s.1 0 .1-.1l.1-.1h.1l.1-.1h.1c0 .1 0 .1-.1.1 0 0-.1 0-.1.1l-.1.1-.2.2c-.1.1-.2.2-.3.4-.1.1-.2.3-.2.3-.1.2-.3.4-.5.5-.1 0-.1.1-.1.1s0 .1.1.1c.1.1.1.2.2.2.1.1.1.1.7-.3.1-.1.2-.2.3-.2.1-.1.4-.3.5-.4.1-.1.4-.3.6-.6.1-.1.2-.2.2-.3.1-.1.1-.2.1-.2s.1-.1.1-.2c.1-.1.2-.3.2-.3 0-.1.1-.2.1-.2 0-.1.1-.1.1-.2 0 0 0-.1.1-.1v-.2c0-.1 0-.2-.1-.2 0 0-.5.2-.6.2h-.1v-.1c.1 0 .1-.2.2-.4 0-.1.1-.3.1-.4v-.1-.2c0-.1 0-.1-.1-.2s-.1-.3-.1-.3c-.1-.3-.2-.5-.5-1-.2-.2-.4-.6-.6-.9-.2-.2-.3-.4-.3-.5l.2.2.3.3.2.2.3.3.4.4.2.2c.2.1.2.2.4.5s.3.6.4.8c0 .1.1.2.1.2v.1s0 .1.1.3c0 .1.1.3.1.5v.2s0 .1.1.2c0 .1.1.2.1.3v1.1c0 .3 0 .3-.1.5 0 .1-.1.2-.1.2 0 .2-.2.4-.3.6-.1.2-.2.3-.3.7 0 0-.1.1-.1.2 0 0-.1.1-.1.2 0 0 0 .1-.1.2 0 .1-.1.2-.1.2 0 .1 0 .4-.1.4 0 0-.1 0-.1-.1v-.1-.3-.5-.2c0-.2.1-.5.2-.7 0-.1.1-.2.1-.3v-.3-.3-.2c0-.3 0-.4-.1-.5-.1-.1-.1-.1-.2 0l-.1.1c-.1.1-.1.2-.4.4-.1.1-.3.2-.3.2s-.1 0-.1.1c0 0-.1 0-.1.1l-.3.3-.1.1c-.1 0-.1.1-.1.1l-.3.3-.1.1-.2.2c-.2.2-.2.2-.3.2v.1s0 .2.1.4c0 .1.1.2.1.2 0 .1 0 .1.1.1s.6-.3.9-.5c.2-.2.5-.4.7-.7l.2-.2h.1s-.1.2-.1.3c0 0-.1.1-.1.2-.1.3-.2.3-.2.3v.1s-.1.2-.2.3l-.3.3c-.1.1-.2.2-.3.2-.1.1-.2.1-.2.2l-.1.1V106.1c.1 0 .5-.1.6-.2.1 0 .1-.1.1 0 0 0-.2.3-.3.4-.1.1-.3.4-.3.5v.1c0 .1 0 .2.1.5.1.1.1.3.1.3 0 .1 0 .1.1.2 0 .1.1.1.1.2s0 .2.1.4c0 .1.1.1.1.2 0 0 0 .1.1.1 0 .1.2.4.2.5v.1c0 .1.1.3.2.5.1.3.2.4.2.5l.1.1H125h-.1c-.1 0-.3.3-.4.4-.1.1-.2.3-.2.4 0 0 0 .1.1.1 0 0 .1.1.2.1h.2c.1 0 .1-.1.2-.1l.2-.2c.1 0 .1-.1.1-.1l.1-.1h.1s0 .1-.1.1c0 .1-.1.1-.1.2 0 0-.1.1-.1.2 0 0-.1.2-.2.2 0 .1-.1.2-.2.3-.1.1-.1.2-.1.3 0 .2.1.3.3.2h.2s.1-.1.2-.1.2-.1.2-.1l.1-.1v.1c0 .1-.1.1-.1.2s0 .1-.1.1l-.1.1-.4.4-.1.1-.2.2c-.1.1-.2.3-.2.3v.5H124.8c.2 0 .3 0 .4-.1.1 0 .1-.1.2-.1.2-.1.5-.3.7-.5.1-.1.1-.1.1-.3 0-.1.1-.2.1-.3.1-.1.1-.2.1-.3v-.2c0-.1.1-.6.1-.6s0-.4-.1-.6c0-.2 0-.3-.1-.5 0-.1-.1-.3-.1-.3v-.1c0-.1-.1-.3-.2-.5 0-.1-.1-.2-.1-.3 0-.1-.1-.2-.1-.2v-.1-.1c0-.1 0-.1-.1-.2 0-.1-.1-.1-.1-.1s0-.3-.1-.3v-.1s-.1-.1-.1-.2-.1-.2-.1-.2 0-.1-.1-.2c0-.1-.1-.2-.1-.2v-.1s0-.1-.1-.1l-.1-.1v-.1l.4-.4s.2-.1.3-.1c.1 0 .2-.1.2-.1.1 0 .3-.1.3-.2.1 0 .1 0 .1-.1.2-.1.3-.1.5-.2.1 0 .2-.1.2 0-.1.1-.2.3-.4.4l-.2.2c-.1.2-.3.3-.3.3s0 .1-.1.1c0 .1-.1.1-.1.1l-.1.1s-.1.1 0 .1c0 .2.1.3.2.3h.1c.1 0 .3 0 .6-.3.2-.1.3-.3.5-.3.1 0 .3-.2.4-.3.2-.1.3-.2.3-.2s0 .1-.1.2c0 .1-.1.1-.1.2 0 0-.1.1-.1.2l-.3.3c0 .1-.1.2-.2.3-.3.3-.3.4-.3.4s0 .1-.1.1c-.1.1-.1.1-.2.3-.1.1 0 .3.1.3h.7s.3-.1.3-.2l.1-.1h.1s.1-.1.2-.1c.1-.1.2-.1.2-.2h.1l.1-.1c.1 0 .1-.1.1-.1s.1-.1.2-.1c.1-.1.5-.4.6-.4h.2v.1l-.1.1-.1.1-.1.1s-.1.1-.1.2-.1.1-.2.2l-1 1-.1.1s0 .1-.1.1l-.1.1s-.1.1-.2.1c-.1.1-.2.1-.2.2-.2.1-.2.2-.2.2v.1c0 .1 0 .2.1.1.1 0 .5-.2.8-.4.1-.1.2-.2.3-.2.1 0 .4-.2.5-.3.3-.2.7-.5.7-.5h.1s.1-.1.2-.1c.1-.1.2-.1.3-.2.1 0 .1-.1.1-.1s.1 0 .1-.1c.1 0 .2-.1.2-.1h.1l-.1.2c-.1.1-.3.3-.2.4v.1s-.1 0-.1.1-.1.1-.1.1l-.7.7-.1.1c-.1 0-.4.3-.4.3l-.1.1-.2.2c-.1.1-.2.1-.2.1l-.2.2c-.1.1-.2.2-.3.2-.1 0-.2.1-.2.2l-.1.1-.2.1V111.9h.1c0 .1.2 0 .4-.1.5-.3 1.1-.6 1.3-.8.1-.1.2-.1.3-.2.1 0 .1-.1.1-.1.1-.1.5-.4.6-.4.1-.1.2-.1.6-.4.1-.1.5-.3.7-.5.1 0 .1-.1.2-.1l.1-.1c.1 0 .3-.2.5-.3.1-.1.1-.1.2-.1 0 0 0 .1-.2.2v.1h-.1c-.1 0-.1 0-.1.1l-.1.1-.1.1-.4.4-.2.2c-.1.1-.7.8-.8.8l-.1.1-.6.6c-.1.1-.2.1-.2.2l-.4.4c-.1 0-.1.1-.1.1l-.2.2-.2.2h-.1l-.1.1c-.1.1-.2.2-.5.4-.2.1-.4.3-.4.4 0 .1 0 .1.2.1s.3-.1.5-.2c.1 0 .2-.1.3-.2.1-.1.3-.2.4-.2.1-.1.2-.1.3-.2.1-.1.2-.1.3-.2.1 0 .1-.1.2-.1 0 0 .2-.1.3-.2.2-.1.3-.2.4-.2.1 0 .4-.2.5-.2.1-.1.4-.3.5-.3.1 0 .2-.1.3-.2.1-.1.5-.3.6-.5.1-.1.2-.2.3-.2l.2-.2.2-.2.1-.1.1-.1s.1-.1.2-.1l.1-.1c.1-.1.4-.3.4-.4l.1-.1c0-.1.1-.1.2-.2s.2-.1.3-.2l.4-.3s0 .1-.2.2l-.1.1h-.1-.1s-.1.1-.1.2c-.1.1-.1.2-.1.2l-.1.1-.1.1-.1.1c-.1.1-.1.1-.1.2v.1s-.1 0-.1.1l-.2.2-.1.1c-.1.1-.6.6-.7.6h-.1l-.1.1-.2.2c-.1.1-.2.2-.4.3-.3.3-.7.6-.7.7 0 0 0 .1-.1.1-.3.2-.4.4-.7.6l-.5.5c-.1.1-.2.2-.2.3v.1s0 .1-.1.1 0 0 0 .1c0 0-.1.1 0 .2.1.2.2.1.7-.2.2-.1.4-.2.5-.3.1-.1.2-.1.3-.2.1 0 .1-.1.1-.1l.1-.1.2-.2.3-.3c.1-.1.3-.2.4-.3.3-.2.5-.4.7-.6.2-.2.3-.2.7-.6.2-.1.5-.3.9-.4.4-.1.4-.1.2 0l-.6.6c-.1 0-.1.1-.2.2l-.2.2-.3.3-.3.3-.2.2s-.1.2-.3.3l-.2.2c-.1.1-.1.1-.2.1l-.1.1-.1.1c-.1 0-.2.1-.3.2-.3.2-.4.3-.4.3-.1.1-.3.2-.3.2v.2c0 .1 0 .1.1.1l.1.1h.3c.1 0 .4 0 .6.1.2 0 .4 0 .4.1H133c.2 0 .8.1 1 .1h.6c.4 0 1.1.1 1.5.1 2.8.1 3.1.1 4.8.1h2c.5 0 1.1.1 1.3.1h.8c.1 0 .3 0 .5.1.2 0 .4 0 .5.1.2 0 1.5.1 1.7.1H148.3c.2 0 .6 0 1 .1 2 .1 2 .1 2.2.1h1.1s.2 0 .9.1c1 .1 2.4.2 3.7.3 2.3.2 2.8.2 2.8.2 0 .1-.1.1-.1.2 0 0 0 .1-.1.2 0 .1-.1.2-.1.3 0 .1-.1.2-.2.3l-.1.1h-.8c-.2 0-.6 0-.8-.1-.2 0-.6 0-.9-.1-.3 0-.7 0-.9-.1h-1.1c-.1 0-.6 0-1-.1-.9-.1-1.4-.1-1.9-.1-1-.1-1.2-.1-1.6-.1-.7-.1-1.2-.1-1.7-.1-1-.1-1.2-.1-1.6-.1-.7-.1-1.2-.1-1.7-.1-.2 0-.5 0-.8-.1-.3 0-.5 0-.6-.1h-.2-.1s-.7-.1-2.2-.2c-1.2-.1-2.9-.2-3.9-.3-1-.1-1.9-.1-2.2-.1h-.9c-.5 0-1.5-.1-1.7-.1h-.7c-.3 0-.7 0-.8-.1h-4.9c-.2 0-.5.1-.5.1s-.1.1-.2.1c-.3.2-.3.2-.4.2-.1 0-.2.1-.2.1l-.1.1c-.1.1-.3.2-.3.2-.1.1-.2.1-.6.3-.6.2-.8.3-.9.3h-.1s-.1 0-.1.1l-.1.1s0 .1-.1.1c0 .1-.1.1-.1.2 0 0 0 .1-.1.1l-.1.1-.8.8c-.1.1-.2.2-.4.3-.1.1-.3.2-.3.2-.2.1-.4.3-.5.3h-.1-.1c-.1 0-.2 0-.5.2-.2 0-.2.1-.2.2v.2c0 .1-.1.5-.2.6 0 .1-.1.2-.1.2 0 .1-.1.2-.1.2s-.1.1-.1.2c0 0-.1.1-.1.2-.2.2-.5.5-.7.6-.2.1-.3.2-.5.3-.1 0-.2.1-.3.1-.2.1-.8.2-1 .1h-.2c-.1 0-.2 0-.2-.1-.1 0-.2 0-.3-.1-.1 0-.2 0-.3-.1-.1 0-.1-.1-.1-.1l-.1.1-.1.1v.1s0 .1-.1.1c0 .1-.1.3-.2.4 0 .1-.1.1-.1.2s-.2.2-.3.3c-.7.6-.8.6-1.1.8-.5.2-.8.3-1.1.4-.2 0-.2 0-.5-.1-.1 0-.3-.1-.3-.1s-.1 0-.2-.1c-.1 0-.1-.1-.2-.1 0 0-.1-.1-.2-.1s-.2-.1-.2-.2-.1-.1-.1-.1h-.1l.1.2c0 .1.1.2.1.4 0 .3 0 .6-.1.8-.1.2-.1.4-.2.4v.1c0 .2-.1.2-.4.6l-.1.1s-.2.2-.3.2l-.1.1-.1.1s-.1 0-.1.1c0 0-.1 0-.1.1l-.1.1s-.1.1-.2.1c-.2 0-.3.1-.4.2-.1 0-.2.1-.2.1s-.2 0-.3.1c-.2.1-.3.1-.4.1h-.2c-.1 1-.2 1-.3.9.1.1.1.1 0 0zm.4-.8c.1 0 .2 0 .2-.1.1-.1.2-.1.4-.2.1 0 .2-.1.2-.1.1 0 .1-.1.1-.1s.1 0 .1-.1c.1-.1.1-.1.3-.2l.1-.1.2-.2.3-.3s0-.1.1-.1c.1-.3.2-.5.1-.6 0-.1-.1-.1-.2-.1 0 0-.1 0-.2.1s-.3.2-.3.2l-.2.1-.1.1-.1.1c-.1.1-.9.5-.9.5l.3-.3.4-.4c.1-.1.2-.2.4-.5.2-.2.3-.4.4-.5 0-.1.1-.1.1-.1v-.1-.1c0-.1 0-.1-.1-.1s-.1 0-.2.1l-.1.1s-.2.1-.3.3l-.2.2-.1.1h-.1-.1s-.1 0-.2.1-.2.1-.2.1h-.1s-.5.3-.6.3c-.1 0-.2.1-.3.1h-.1-.1c-.1 0-.3.1-.3.1l.1-.1c.1-.1.2-.1.2-.2.1 0 .1-.1.2-.1l.1-.1c.1-.1.3-.2.3-.2l.2-.2s.4-.4.6-.5c.1 0 .1-.1.1-.2 0 0 .1-.1.1-.2l.3-.3c.2-.2.2-.3.2-.3v-.2c-.1-.1-.2 0-.3.1l-.1.1s-.2.1-.3.2c0 0-.1.1-.2.1s-.1.1-.2.1c0 0-.1.1-.2.1l-.1.1c-.1.1-.2.1-.3.2-.1 0-.2.1-.3.2-.2.1-.3.2-.4.2 0 0-.1.1-.3.2-.1 0-.2.1-.3.1-.1 0-.1.1-.2.1s-.4.1-.4.2c-.1 0-.2.1-.2 0l.1-.1c.1 0 .2-.1.4-.2.1-.1.4-.2.5-.3.1-.1.3-.2.3-.2.1 0 .2-.1.2-.1.2-.1.2-.2.3-.2 0 0 .5-.6.6-.6l.2-.2c.1-.1.1-.1.2-.1 0 0 .1-.3.1-.4 0-.1 0-.1-.1-.1l-.1-.1c-.1 0-.2.1-.3.2 0 0-.1.1-.2.1s-.1.1-.2.1c0 0-.1.1-.2.1l-.1.1c-.1.1-.2.1-.3.2-.1 0-.2.1-.3.2-.2.1-.3.2-.4.2 0 0-.1.1-.3.2-.1 0-.2.1-.3.1-.1 0-.1.1-.2.1s-.4.1-.4.2c-.1 0-.2.1-.2 0l.1-.1c.1 0 .2-.1.4-.2.1-.1.4-.2.5-.3.1-.1.3-.2.3-.2.1 0 .2-.1.2-.1.2-.1.2-.2.3-.2 0 0 .5-.6.6-.7l.2-.2.1-.1s-.1-.1-.2-.1c-.2-.1-.2-.1-.3-.1-.2 0-.9.1-1 .1-.2 0-.3.1-.4.1l-.1.1-.1.1c-.1 0-.1.1-.1.1s-.1.1-.1.2c-.1.1-.1.2-.2.3l-.2.2s0 .1-.1.2c-.1.2-.1.3-.1.4 0 0 0 .1-.1.1 0 .1-.1.1-.1.2 0 0 0 .1-.1.2 0 .1-.1.2-.1.2 0 .1-.1.3-.2.4-.1.1-.2.4-.2.4l.1.1s.2.1 1.6 1c.7.4.7.5.7.5s.1 0 .1.1c0 0 .1.1.2.1 0 0 .1 0 .1.1h.4s.1.1.2.1.1.1.2.1H107.5zm-6.8-.4h.3c.1 0 .2 0 .4-.1.2 0 .4-.1.4-.1.1 0 .3-.1.5-.1.1 0 .1-.1.2-.1.1-.1.1-.1.1-.2v-.1h-.1-.2c-.1 0-.3 0-.5.1h-.8c-.2 0-.4.1-.7.1-.3 0-.4 0-.3-.1.1 0 .5-.2.6-.3 0 0 .2-.1.4-.1.1 0 .5-.2.6-.3 0 0 .1 0 .1-.1.1 0 .2-.2.3-.2l.1-.1c0-.1.1-.1.1-.1l.2-.4c0-.1.1-.2.1-.2v-.1s0-.1.1-.2c0-.1.1-.2.1-.3.1-.2.1-.3.1-.3l.2-.4c.1-.2.1-.3.2-.3 0 0 .1-.1.1-.2s.1-.1.1-.1c.1-.2.3-.6.3-.7v-.1-.1s.1-.2.1-.3v-.1-.2-.6-.2-.2-.2c0-.3-.1-.4-.2-.6-.1-.1-.1-.2-.2-.3-.1-.2-.1-.3-.3-.4 0 0-.1-.2-.2-.3-.3-.3-.6-.6-.9-.7l-.1-.1s-.1-.1-.2-.1c0 0-.1 0-.1-.1 0 0-.2-.1-.3 0-.1 0-.3.2-.3.4v.4c0 .1.2.2.3.3 0 0 .1 0 .1.1 0 0 .1.1.2.1s.2.1.3.2c.2.2.6.5.6.7.1.1.1.1.1.2v.4c0 .1-.1.2-.2.4-.1.1-.2.3-.3.5 0 0-.1.1-.1.2-.1.2-.4.6-1 1.1l-.3.3c-.1.1-.2.2-.3.2-.1.1-.4.2-.7.2-.1 0-.3.1-.3.1h-.1c-.2 0-.5.1-.7.1-.2.1-.3.1-.5.2-.1 0-.1.1-.2.1l-.1.1-.1.1-.1.2v.1s0 .1.1.1 1 .1 1 0h.1c.1 0 .2 0 .3-.1.1 0 .3-.1.4-.1.1 0 .2 0 .6-.1.4-.1.5-.1.7-.1h.1l-.1.1-.4.2h-.1l-.1.1s-.1.1-.4.2c-.1 0-.2.1-.2.1s-.2.1-.3.1c-.2 0-.3.1-.4.1-.1 0-.1.1-.2.1 0 0-.1 0-.1.1-.1 0-.2.1-.4.2-.1 0-.1.1-.2.1h-.1-.1s-.1 0-.1.1c-.1 0-.1.1 0 .1h.1c.1 0 .4.1.5.1h.4c.3 0 .5-.1.7-.1.1 0 .3 0 .3-.1.1 0 .2-.1.2-.1.1 0 .2-.1.3-.1.2 0 .4-.1.5-.2.1-.1.2-.1.2-.1h.1c.2-.1.2-.1.1 0l-.1.1-.1.1-.1.1-.1.1c-.2.1-.6.3-.6.4-.1.1-.5.3-.6.3 0 0-.1 0-.1.1 0 0-.1.1-.2.1h-.1s-.3.1-.4.1c-.1 0-.2 0-.6.1-.2 0-.2 0-.3.1 0 0-.1 0 0 .1 0 0 0 .1.1.1s.1.1.2.1c0 0 .1.1.2.1l.1.1.1.1H98.8c.2.1.6.1.8.1h.4c.4 0 .6 0 .7-.1zm-5.8-2.5h.4s.2 0 .3-.1c.1 0 .3-.1.3-.1h.1s.1-.1.4-.3l.5-.5.2-.2.2-.2c.2-.3.3-.3.4-.5l.2-.2.1-.1.1-.1s.2-.4.4-.6c.1-.1.1-.2.1-.2s.1-.2.2-.3c.1-.1.3-.3.4-.5.1-.2.3-.3.3-.4l.1-.1s.1-.3.2-.4c.1-.1.4-.5.4-.6 0-.1.1-.1.1-.2s0-.1.1-.3v-.1s0-.1.1-.2c0-.1.1-.2.1-.2s0-.1.1-.1c0-.1.1-.1.1-.1v-.1-.1s0-.1.1-.1c0 0 .1-.1.1-.2s.1-.1.1-.2v-.1-.1c.1-.1.1-.3.1-.4v-.2-.1-.2c0-.1 0-.2-.1-.2v-.1-.1s0-.1-.1-.1c0 0-.1-.2-.3-.4l-.4-.4c-.1 0-.2-.1-.3-.2l-.1-.1s-.1-.1-.2-.1l-.4-.2c-.4-.1-.7-.2-1.1-.1h-.4c-.1 0-.4.1-.6.1-.1 0-.1 0-.2.1 0 0-.1.1-.2.1s-.1.1-.1.1-.1 0-.1.1c-.1.1-.7.6-.7.7l-.2.2c-.1.2-.3.3-.3.4 0 0 0 .1-.1.2 0 .1-.1.2-.1.2v.2s0 .1-.1.2-.1.2-.1.2l-.1.1c0 .1-.1.2-.2.3l-.1.1v.1s-.1.2-.1.3c0 0-.1.3-.2.3-.2.3-.2.3-.1.4h.2c.2-.1.3-.1.5-.2l.2-.1v-.1s0-.1.1-.2c0-.1.1-.2.1-.2 0-.1.1-.2.1-.3 0 0 .2-.5.3-.6 0-.1.2-.4.3-.6.1-.1.2-.2.2-.3.1-.1.2-.3.2-.3s0-.1.1-.1c0-.1.3-.3.3-.3h.2s.1 0 .1-.1l.1-.1h.3c.2 0 .3 0 .6.1.8.3.7.2 1.1.5.3.2.4.3.4.4 0 0 0 .1.1.1s.1.1.1.1.1.1.2.3c.2.2.4.4.4.5v.2c0 .1-.1.1-.1.1s0 .1-.1.1c0 .1-.1.2-.1.2-.1.1-.1.2-.3.5-.1.1-.3.5-.4.6l-.1.1-.1.1-.1.1s-.1.1-.1.2l-.1.1c0 .1-.2.2-.2.2s-.1 0-.1.1c-.1.1-.2.1-.4.2-.1 0-.1 0-.1.1h-.7-.1s-.1 0-.2-.1c-.3-.1-.3-.1-.4-.2-.2-.1-.2-.1-.3-.1h-.1-.2c-.1 0-.2.1-.2.1h-.1-.1-.1-.1c-.1 0-.2.1-.2.1h-.1s-.1 0-.2.1c-.1 0-.2.1-.4.1-.1 0-.3.1-.3.1s-.2.1-.3.1c-.1.1-.2.1-.2.1l-.3.1c-.1 0-.1.1-.2.1-.2.1-.4.3-.4.3 0 .1.1.1.2.1.2 0 .7-.1 1-.2h.3c.1 0 .6-.1 1-.2h.2c.2 0 .6-.1 1.2-.3h.2c.1 0 .1 0 .1.1 0 0-.2.1-.3.2-.1 0-.4.2-.5.2l-.4.2c-.1 0-.1.1-.1.1s-.2.1-.4.1c-.2.1-.4.1-.4.1h-.1c-.1 0-.2.1-.4.1-.1.1-.4.1-.5.2-.1 0-.1 0-.2.1h-.1s-.3.1-.5.2c-.1 0-.2.2-.2.2s.1.1.3.1c.4 0 .8 0 1.3-.2.1 0 .3-.1.4-.1.2-.1.8-.2 1.1-.3.1 0 .4-.1.6-.2.2-.1.5-.1.7-.2.4-.1.5-.1.5-.1l-.1.1c-.1 0-.1.1-.1.1l-.4.2c-.2.1-.4.2-.5.2h-.1c-.1.1-.5.2-.6.3H96h-.1-.1-.1-.1s-.2.1-.3.1c0 0-.1.1-.2.1-.2.1-.4.2-.5.2-.1 0-.2.1-.2.1-.4.3-.4.4-.4.4 0 .1 0 .1.1.2s.2.1.4.1.6-.1.8-.1c.1 0 .2-.1.3-.1.1 0 .3-.1.4-.1.1-.1.3-.1.3-.1s.1 0 .2-.1h.2s-.2.2-.6.5c-.1 0-.2.2-.3.2l-.4.2c-.1 0-.2 0-.2.1-.2.1-.4.1-.6 0-.5 0-.5-.1-.6-.1h-.1c-.1 0-.3 0-.5-.1-.1 0-.2-.1-.2-.1l-.2-.1s-.1-.1-.2-.1l-.1-.1c-.1-.1-.2-.2-.2-.3 0-.2-.1-.2-.2-.1s-.1.2-.1.6c0 .2.2.6.4.7.1.1.4.2.7.4.1.1.3.2.3.2.1.1.4.2.5.2.2-.1.6-.1.8-.1zm17.4-.4c.1 0 .2 0 .2-.1.1-.1.2-.1.4-.2.1 0 .2-.1.2-.1.1 0 .1-.1.1-.1s.1 0 .1-.1c.1-.1.1-.1.3-.2l.1-.1.2-.2.3-.3s0-.1.1-.1c.1-.3.2-.5.1-.6 0-.1-.1-.1-.2-.1 0 0-.1 0-.2.1s-.3.2-.3.2l-.2.1-.1.1-.1.1c-.1.1-.9.5-.9.5l.3-.3.4-.4c.1-.1.2-.2.4-.5.2-.2.3-.4.4-.5 0-.1.1-.1.1-.1v-.1-.1c0-.1 0-.1-.1-.1s-.1 0-.2.1l-.1.1s-.2.1-.3.3l-.2.2-.1.1h-.1-.1s-.1 0-.2.1-.2.1-.2.1h-.1s-.5.3-.6.3c-.1 0-.2.1-.3.1h-.1-.1c-.1 0-.3.1-.3.1l.1-.1c.1-.1.2-.1.2-.2.1 0 .1-.1.2-.1l.1-.1c.1-.1.3-.2.3-.2l.2-.2s.4-.4.6-.5c.1 0 .1-.1.1-.2 0 0 .1-.1.1-.2.1-.1.4-.5.4-.5.1-.2.1-.2 0-.3h-.1c-.1 0-.2.1-.2.2l-.1.1s-.2.1-.3.2c0 0-.1.1-.2.1s-.1.1-.2.1c0 0-.1.1-.2.1l-.1.1c-.1.1-.2.1-.3.2-.1 0-.2.1-.3.2-.2.1-.3.2-.4.2 0 0-.1.1-.3.2-.1 0-.2.1-.3.1-.1 0-.1.1-.2.1s-.4.1-.4.2c-.1 0-.2.1-.2 0l.1-.1c.1 0 .2-.1.4-.2.1-.1.4-.2.5-.3.1-.1.3-.2.3-.2.1 0 .2-.1.2-.1.2-.1.2-.2.3-.2 0 0 .5-.6.6-.6 0 0 .3-.2.4-.3 0 0 .1-.1.1-.2s.1-.2.1-.2c.1-.1.1-.2.1-.3 0-.1-.1-.1-.2 0l-.2.2c-.1 0-.1.1-.1.1s0 .1-.1.1v.1h-.1-.1s-.1 0-.1.1h-.1-.1l-.1.1s0 .1-.1.1-.1 0-.1.1l-.4.2s-.1 0-.1.1c-.1.1-.2.1-.2.1s-.1 0-.1.1l-.1.1c-.1 0-.3.1-.5.2-.1.1-.3.1-.3.1-.1 0-.2.1-.3.1-.1.1-.3.1-.4.1-.1 0-.2.1-.3.1-.2.1-.3.1-.4.1h-.2c-.1 0-.1 0-.4-.1-.1 0-.2-.1-.3-.1-.1 0-.1-.1-.1-.1l-.1-.1h.2c.3 0 .3 0 .3-.2v-.1-.1h-.2c-.2 0-.2 0-.5.1H106.4c-.1 0-.1.1-.2.1s-.1.1-.1.1v.1l.1.1.1.1s.1.1.2.1c.1.1.4.3.7.4.2.1.5.3.5.4h.1l.6.4c.3.2.7.5.8.5.1.1.3.2.4.2.1.1.2.1.3.1 0 0 .1 0 .1.1 0 0 .1.1.2.1 0 0 .1 0 .1.1 0 0 .1.1.2.1 0 0 .1 0 .1.1h.4s.1.1.2.1.1.1.2.1h.2c.1.1.5.1.7.1zm-12.4-1.5h.1c.1 0 .4-.2.4-.2s-.1-.1-.2-.1h-.2c0-.1-.4 0-.5.1-.1.1-.1.2-.1.3h.2s.2 0 .3-.1zm-10.8-.5h.3c.4 0 .9-.1 1.3-.3.3-.1.3-.2.4-.2 0 0 0-.1.1-.1h.1s.1 0 .1-.1h.1s0-.1.1-.1l.2-.2.2-.2.1-.1s.2-.1.3-.3c.1-.1.2-.2.2-.3l.4-.4c.1-.1 0-.2-.1-.2 0 0-.1 0-.2.1l-.1.1-.2.2s-.3.2-.7.4c-.2.1-.5.2-.7.2-.2 0-.4.1-.4.1h-.2v-.1c.1-.1.3-.2.4-.2 0 0 .1 0 .1-.1l.2-.2c.1-.1.3-.2.4-.4.4-.3.5-.4.4-.4v-.1h-.2-.1c-.1 0-.3.1-.6.2-.1 0-.1.1-.2.1s-.2.1-.2.1l-.1.1c-.1 0-.1.1-.1.1h-.1s-.1 0-.2.1c-.1 0-.1.1-.2.1 0 0-.1.1-.2.1s-.2.1-.2.1-.1 0-.2.1c-.1 0-.2.1-.3.1-.1 0-.2 0-.3.1h-.5s.1-.1.1-.2l.1-.1.1-.1.1-.1h.1s.1-.1.2-.1.1-.1.2-.1.1-.1.2-.1c0 0 .1-.1.1-.2.1-.1.1-.1 0-.3 0-.1 0-.1-.1-.2-.1-.2-.3-.2-.5-.1h-.2-.1s-.1.1-.2.1c-.4.1-.6.2-.6.2h-.4l.2-.2c.1-.1.2-.3.3-.3l.1-.1.1-.1.1-.1v-.1-.1-.1-.1l-.1-.1h-.2s-.3.1-.4.2c-.1 0-.3.2-.4.3-.1.1-.1.2-.1.2s0 .1-.1.1c0 .1-.1.1-.1.1-.1.1-.2.3-.1.5v.1c0 .1 0 .2.1.3.1.2.1.5.1.6v.1l.1.1s0 .1.1.1v.1c0 .1.1.2.2.3 0 0 .1.1.1.2l.3.3c.1 0 .1.1.1.1s.1 0 .1.1c.1.1.3.2.4.2l.2.1s.1.1.2.1h.5zm12-.5c.4-.2.5-.2.6-.4.1-.1.1-.1.1-.2 0 0 0-.1.1-.1.1-.1.1-.2.1-.3 0-.1-.1-.1-.2-.1h-.1-.5.1s.3-.1.5-.2c.4-.2.5-.2.6-.2h.2c.1-.1.1-.2 0-.3-.1-.2-.3-.5-.5-.6 0 0-.1-.1-.2-.1-.2-.2-.5-.3-.7-.2h-.1s-.4.3-.4.4v.2s0 .1.1.1h.2c.1-.1.3-.1.4 0 .1.1.1.1 0 .2 0 .1-.3.2-.3.2s-.2.1-.3.2h-.1l-.3.2-.1.1c-.1.1-.1.2-.1.3V121.4s-.1.1-.1.2 0 .1.1.1l.2.2.2.2s.1 0 .2.1c.1 0 .2.1.3.1-.2-.3-.1-.3 0-.4zm-6.5-2.2h.2s.1 0 .2-.1c.1 0 .2-.1.3-.1.1 0 .4-.1.4-.2.1-.1.1-.1 0-.2v-.1-.1l-.1-.1-.1-.1h-.1l-.2.1c-.1 0-.1.1-.1.1H95h-.1-.2c-.1 0-.3.2-.4.2l-.1.1c-.1 0-.1.1-.1.2s.1.1.2.1c.1.3.3.3.3.2zm-10.3-.2l.2-.1c0-.1 0-.2-.1-.3-.1-.1-.2-.2-.3-.2H84h-.1s-.1 0-.2-.1c-.1 0-.2-.1-.2-.1-.1 0-.2-.1-.3-.1-.1 0-.2-.1-.2-.1l-.1-.1c-.2-.1-.3-.2-.4-.3l-.1-.1s-.1 0-.1-.1c0 0-.1 0-.1-.1-.1 0-.2 0-.2.1s0 .1.1.2c0 0 .1.1.1.2.1.3.4.5.7.8.1.1.2.1.2.1s.1.1.2.1c.1.1.2.1.3.2.3.1.5.1.7 0zm13.7 0c.1 0 .2-.1.3-.1.1 0 .2-.1.2-.1l.1-.1.1-.1c0-.1.1-.1.2-.2l.3-.3H99c-.3.1-.6.1-.8.1h-.1c-.1 0-.3-.1-.3-.1v-.1c0-.1.1-.1.2-.1s.9-.2 1-.3c0 0 .1 0 .2-.1 0 0 .1-.1.2-.1 0 0 .1-.1.2-.1.1-.1.1-.2.1-.2v-.1-.1s-.1-.2-.2-.3l-.3-.3c-.1-.1-.2-.2-.3-.2 0 0-.1 0-.1-.1 0 0-.1 0-.2-.1-.1 0-.2-.1-.3-.1-.1 0-.2-.1-.2-.1H98s-.1 0-.1-.1h-.7l-.1.1-.3.3-.1.1-.1.1c-.1.1-.3.4-.4.8-.2.4-.2.5-.2.7v.2l.1.1c0 .1.1.1.1.1v.1s0 .1.1.1c0 .1.3.3.4.4.1.1.2.1.4.2.1 0 .1.1.2.1h.1s.1 0 .1.1c.1.1.2.1.3.1.1-.2.1-.2.2-.2zm-.8-2.1l.1-.1s.1-.1.7-.5c.3-.2.3-.2.4-.2 0 0 .1.1.3.1.1.1.2.1.2.1s-.4.2-.5.2c-.1 0-.1 0-.2.1s-.2.1-.2.1h-.1s-.1.1-.3.1c-.1.1-.3.1-.4.1 0 .1 0 .1 0 0zm-6.6 1.9s.1 0 .2-.1c.1 0 .1 0 .2-.1s.2 0 .2-.1c.1 0 .2-.1.2-.1.1 0 .2-.1.3-.1.1 0 .2-.1.2-.1s.2-.1.3-.2l.1-.1h.2s.1 0 .1-.1l.1-.1c.1-.1.1-.1 0-.2 0 0 0-.1-.1-.1v-.1c0-.1 0-.2-.1-.3 0-.1-.1-.1-.1-.1s-.1-.1-.1-.2c-.1-.1-.1-.2-.2-.2v-.1l-.6-.6-.1-.1c-.1-.1-.1-.1-.3-.1-.2-.1-.3-.1-.6 0-.2.1-.4.1-.5.1-.1 0-.4.1-.5.2h-.1c-.1 0-.3.2-.3.3l-.1.1s-.3.3-.3.4v.6c.1.3.1.3.2.5.1.1.2.2.2.3l.1.1.3.3c.1 0 .2.1.3.2.1 0 .2.1.2.1h.2c.1.1.3 0 .4 0zm0-.8l.4-.4.1-.2s0-.1.1-.3c.1-.2.1-.2 0-.3h-.1c-.1 0-.1 0-.1-.1s.2-.1.3.1c0 0 .2.2.3.4.1.2.3.3.3.3l-.2.2c-.5.3-.5.3-.6.3H91l-.6.2c.1 0 .1-.1.2-.2zm-5.4-.1H85.5v-.1c-.1-.1-.3-.3-.2-.3l.1-.1.1-.1s.1-.1.2-.1.2-.1.2-.1h.2s.1-.1.2-.1c.2-.1.3-.2.3-.2s0-.1.1-.1l.1-.1c0-.1.1-.1.2-.2l.1-.1s0-.1.1-.1c.1-.1.1-.2 0-.4 0-.1-.1-.2-.1-.3v-.1-.1-.1c0-.1-.1-.2-.2-.3-.1-.1-.2-.1-.2-.2l-.1-.1-.1-.1c-.1-.1-.5-.3-.6-.4-.3-.1-.4-.1-.7-.2h-.3-.3c-.2 0-.4 0-.4.1h-.4s-.1 0-.2.1c-.4.1-.9.3-1.1.5l-.1.1-.1.1s0 .1-.1.1c-.1.2-.1.3 0 .3 0 0 .3-.1.4-.1.1-.1.6-.3 1-.3h.2c-.1 0-.2.1-.7.5-.3.2-.6.5-.7.5l-.3.3v.1l.1.1c.1 0 .2.1.4 0h.2s.1 0 .2-.1c.4-.1.6-.2.6-.2s.2 0 .6-.2l.4-.2s.3-.1.4-.1l-.3.2-1.2.8c-.1.1-.3.2-.4.2-.1.1-.2.1-.2.3 0 .2.1.2.3.4 0 0 .1.1.2.1.1.1.2.1.2.1s.1 0 .1.1l.1.1s.1 0 .1.1c.2.1.5.2.6.2h.4c.1-.2.2-.2.3-.2zm-1.1-.9s0-.1 0 0c.2-.1.3-.2.4-.3.3-.2.4-.2.4-.2s.2-.1.3-.2c.1 0 .2-.1.3-.2.1-.1.2-.1.3-.2 0 0 .1 0 .2-.1h.2l.2.2s-.1 0-.2.1-.2.1-.2.1-.1 0-.1.1c0 0-.1 0-.2.1-.1 0-.2 0-.2.1 0 0-.1.1-.2.1h-.1s-.1 0-.2.1c-.2.1-.3.1-.5.2-.1.1-.4.1-.4.1zm9.4.7l.2-.2c0-.1.1-.1.1-.1s.1-.1.1-.2c.1-.2.2-.4.2-.6v-.1-.4c0-.2-.1-.5-.3-.7l-.1-.1s0-.1-.1-.1l-.1-.1s0-.1-.1-.1l-.2-.2c-.1-.2-.2-.3-.4-.4-.1 0-.1-.1-.2-.1 0 0-.1-.1-.2-.1l-.1-.1h-1c-.2 0-.6.1-.8.2-.1 0-.2.1-.2.1-.1 0-.5.2-.5.2s-.2.1-.3.2c-.2.1-.5.3-.5.3l-.1.1-.1.1v.1h.2c.1 0 .2 0 .3-.1.1 0 .2-.1.3-.1.1 0 .1 0 .2-.1 0 0 .1-.1.2-.1 0 0 .2-.1.3-.1.3-.1.4-.1.5-.1.2 0 .3 0 .5.1.1.1.2.2.7.6.9.9.9.9.9 1 0 .1.1.2.1.2.1.1.1.4.1.6 0 .2 0 .2.1.2.2.3.2.3.3.2zm27.5-.1c.1 0 .3-.1.3-.1.1 0 .2-.1.3-.1.1-.1.2-.1.3-.2.2-.1.5-.4.6-.8 0 0 0-.1.1-.1l.1-.1v-.1c.1-.1.1-.2.1-.2h-.1-.1s-.1 0-.1.1c0 0-.1.1-.2.1s-.1.1-.2.1l-.1.1h-.1s-.1 0-.1.1c-.1.1-.2.2-.3.2 0 0-.1 0-.1.1-.1 0-.1.1-.1.1h-.1l-.1.1-.1.1h-.1l-.1.1s-.1.1-.3.1c-.2.1-.2.1-.2.2s0 .1.1.1c.1.2.4.2.6.1zm-25.7-2.8c.1 0 .2-.1.3-.2.1-.1.1-.1.1-.2s0-.1-.1-.1h-.1c-.1 0-.3.1-.3.1s-.1 0-.1.1c-.1 0-.3.2-.3.2s0 .1.1.1l.1.1c.1-.1.1-.1.3-.1zm-.2-1.1c.1-.1.3-.2.4-.2.1-.1.2-.1.2-.1.1 0 .1-.1.2-.1.1-.1.3-.2.4-.3.1 0 .2-.2.4-.3.3-.2.5-.4.6-.4l.1-.1s.2-.2.4-.3c.3-.2.7-.6.7-.6s0-.1-.1-.2-.3 0-.6.1c-.1.1-.2.1-.4.3-.1.1-.2.2-.3.2-.1 0-.2.1-.2.1l-.2.2c-.1.1-.2.2-.3.2l-.3.3c-.1.1-.3.3-.5.4-.1.1-.3.3-.4.3-.4.4-.7.6-.7.7 0 .1.1.1.1.1.2-.2.3-.2.5-.3zm2.6-.5c.1 0 .3-.1.4-.2.2-.1.3-.2.6-.3.1-.1.2-.1.2-.1s.1-.1.2-.1c0 0 .1-.1.2-.1l.3-.3c.1-.1.2-.2.2-.3v-.1-.2l-.1-.1h-.4-.1s-.1.1-.2.1l-.1.1s-.1 0-.1.1c-.1 0-.1.1-.1.1s-.1 0-.1.1c0 0-.3.2-.5.4-.5.4-.5.5-.7.6-.1.1-.2.2-.2.3v.1l.1.1h.2c0-.2.1-.2.2-.2zm-5.9-20.3c.7-.2.8-.3 1-.4.1 0 .1-.1.2-.1.1-.1.2-.1.3-.2l.2-.2c.2-.2.3-.4.3-.5v-.1-.2s-.8.4-.9.5c-.1.1-.2.1-.2.1s-.1.1-.3.1c-.1.1-.3.1-.3.1-.1 0-.2.1-.2.1-.1 0-.2.1-.2.1-.1 0-.2.1-.2.1-.1 0-.2.1-.3.1-.1 0-.2.1-.2.1h-.1c-.1 0-.3.1-.3.1s.1.1.2.1c0 0 .1 0 .1.1.1.1.4.1.7.1 0 .1 0 0 .2 0zm-17.9 34.8c.1 0 .1 0 0 0 .1 0 .1 0 0 0zm40-10.2l.2-.2c.1-.1.3-.2.5-.4l.3-.3v-.1-.1-.1c.1-.1 0-.2-.1-.1l-.6.2c-.5.1-.5.1-.9.1h-.2l.1-.1c.1 0 .2-.1.2-.1.1 0 .1-.1.2-.1 0 0 .1 0 .2-.1.2-.1.2-.1.2-.3v-.1l-.1-.1c-.1-.1-.2-.2-.4-.3h-.2c-.4.2-.5.2-.6.3-.1.1-.3.1-.4.1-.1 0-.3 0-.3-.1s.4-.5.5-.6c.1 0 .5-.3.6-.3h.1s.5-.3.6-.4c.1-.1.3-.2.4-.3 0 0 .1-.1.2-.1s.1-.1.1-.1c.3-.2.3-.2.4-.3l.3-.3c.1-.1.2-.1.2-.1s-.1.2-.2.3c0 0-.1.1-.1.2s-.1.1-.1.2v.1s0 .1-.1.2v.1s0 .1-.1.1c-.1.1-.2.3-.3.4-.1.2-.1.5 0 .5s.2 0 .3-.1c.1 0 .2-.1.2-.1.1-.1.5-.3.8-.7.1-.1.3-.2.4-.4.1-.1.3-.2.3-.2v.2c0 .1-.1.2-.1.2 0 .1 0 .1-.1.1 0 0-.1.1-.1.2v.1s-.1.1-.1.2c-.1.1-.2.3-.3.4l-.2.2-.2.2c-.1.1-.2.2-.1.2h.4c.1 0 .5-.1.6-.2.1 0 .2-.1.2-.1.1-.1.2-.1.2-.1s-.1.3-.2.3c0 .1-.5.6-.6.7 0 0-.1.1-.2.1s-.2.1-.3.2c-.1.1-.3.2-.4.3-.1.1-.3.2-.3.2s-.1 0-.2.1c-.2.1-.7.4-.8.4.3-.1.2-.1.2-.1zm42.3-2v-.1l.1-.1s0-.1.1-.1c0 0 .1-.1.2-.1.1-.1.4-.3.5-.4.1 0 .1-.1.2-.1.3-.2.9-.6 1-.6 0 0 .1 0 .2-.1.2-.1.3-.2.5-.3.1-.1.3-.2.4-.2.1-.1.2-.2.3-.2.1 0 .3-.2.3-.2h.4s-.1.3-.3.4l-.2.2-.5.5c-.1.1-.2.2-.3.2l-.1.1c-.1.1-.1.1-.2.1 0 0-.2.1-.4.3-.2.2-.4.3-.5.4l-.1.1-.1.1s-.1.1-.2.1-.2.1-.2.1c-.2.1-.5.2-.8.2-.2-.3-.3-.3-.3-.3zm-2.4 0h-.2s.2-.3.2-.4c.1-.1.4-.3.6-.5.1 0 .2-.1.2-.1.1-.1.4-.3.5-.3 0 0 .1-.1.2-.1.4-.3.5-.4.8-.6.2-.1.4-.2.5-.3.1-.1.3-.2.4-.2.2-.2.3-.2.5-.3.3-.2.5-.3.5-.3l.1-.1s.1-.1.2-.1h.1s.1-.1.1 0c0 0-.1.2-.4.4l-.4.4-.2.2-.2.2c-.1.1-.2.2-.5.6-.1.2-.2.2-.4.4-.2.1-.3.2-.4.3-.1.1-.4.2-.5.3l-.1.1s0 .1-.1.1h-.1l-.1.1s-.1 0-.1.1c0 0-.1 0-.1.1h-.1-.1c-.1 0-.1 0-.2.1h-.1H154.1c-.2-.1-.3-.1-.3-.1zm-2.8-.2h-.1l.2-.2.5-.5c.2-.2.3-.3.5-.4.1 0 .3-.2.6-.4.1-.1.3-.2.4-.3.6-.4 1-.7 1.5-1.1.2-.1.5-.3.6-.4.5-.3.6-.4.9-.7.2-.1.3-.3.3-.3v.1s-.1.1-.1.2c-.2.2-.5.6-.7.8l-.9.9-.5.5-.2.2c-.2.2-.3.3-.4.3l-.2.2c-.1.1-.3.2-.5.4-.1 0-.2.1-.2.2-.1.1-.3.2-.7.3-.3.1-.4.1-.4.1h-.1-.1-.1c-.1.2-.1.2-.3.1zm8.3-.1c-.1 0-.1 0 .3-.4l.3-.3c.1-.1.2-.2.3-.2.1-.1.5-.3.7-.5.1-.1.3-.1.3-.2 0 0 .1 0 .1-.1.1 0 .1 0 .1-.1 0 0 0-.1.1-.1l.4-.2-.1.4-.1.1c-.1 0-.2.2-.2.2-.1.1-.2.2-.3.2-.1.1-.2.1-.2.1l-.3.3c-.1 0-.1.1-.2.2l-.1.1s-.1.1-.2.1l-.1.1h-.4c-.2.3-.4.3-.4.3zm-10-.1c.1 0 0 .1 0 0 0 .1 0 0 0 0zm0 0h-.5s.1-.2.2-.3c.1 0 .2-.1.2-.2.3-.2.6-.4.8-.5.4-.3.5-.3.6-.4.1 0 .1-.1.2-.1 0 0 .2-.1.3-.2.1-.1.3-.2.3-.2l.1-.1.1-.1s.1-.1.2-.1l.1-.1c.1-.1.3-.2.4-.3l.3-.3c.1-.1.2-.2.3-.2.1-.1.2-.2.3-.2.1 0 .1 0-.1.3-.1.1-.2.3-.2.3l-.1.1c-.1.1-.5.7-.6.7l-.2.2c-.2.2-.3.4-.4.4l-.2.2-.3.3c-.1 0-.1.1-.1.1s-.1 0-.1.1l-.1.1s-.1.1-.2.1c-.2.2-.3.3-.5.4-.2.1-.3.1-.7.3 0-.3 0-.3-.1-.3zm-2.8-.2c0-.1.6-.6.8-.7.1-.1.2-.2.3-.2l.1-.1s.2-.1.3-.2c0 0 .1-.1.2-.1 0 0 .2-.1.2-.2.1-.1.2-.2.3-.2.1 0 .1-.1.2-.1 0 0 .1-.1.2-.1s.2-.1.2-.2c.5-.4.8-.6.9-.8.1-.1.2-.2.3-.2.1-.1.2-.2.3-.2.1-.1.3-.3.6-.5.5-.5.6-.6.7-.5l-.1.2v.2s0 .1-.1.1l-.1.1-.1.1v.1s-.3.3-.3.4c0 .1-.1.1-.1.1l-.2.2-.6.6-.4.4-.1.1s0 .1-.1.1l-.2.2-.1.1-.3.2-.1.1c-.1 0-.2.1-.3.2-.2.2-.4.3-.6.4-.1.1-.2.1-.2.1h-.1c-.1.1-.4.2-.7.2-.7.2-.8.2-.8.1zm-2-.1s-.1 0 0 0c-.2 0-.2-.2 0-.2.1 0 .2-.1.3-.2 0 0 .1-.1.2-.1.3-.2.8-.5.8-.6 0 0 .1 0 .2-.1s.2-.1.2-.1c.1-.1.1-.1.3-.2 0 0 .1-.1.2-.1.1-.1.3-.2.3-.2h.1c.1-.1.2-.1.4-.3.2-.1.7-.7.8-.8 0-.1.1-.1.2-.2s.3-.2.4-.3c.1-.1.3-.2.4-.3.1-.1.3-.2.3-.2.2-.1.2-.2.2-.1v.2l-.1.1-.1.1s-.2.3-.3.4l-.1.1-.1.1-.1.1c-.1.1-.1.2-.2.2 0 0 0 .1-.1.1l-.1.1-.3.3-.1.1-.3.3c-.1.1-.3.3-.3.4-.1.1-.5.4-.8.7-.1.1-.2.2-.3.2-.1.1-.1.1-.2.1 0 0-.1.1-.2.1-.2.1-.2.2-.3.2-.1 0-.1.1-.1.1s-.1.1-.3.1c-.4-.2-.7-.1-.9-.1zm-4.1 0h-.1c-.1 0-.4 0-1.3-.1-.3 0-.6 0-.8-.1H137.6s.1-.1.8-.6c1-.7 1-.7 1.3-.9.5-.4.7-.5 1.4-1.1l.4-.4.2-.2s.1-.1.2-.1l.1-.1.3-.3.3-.3c.6-.6 1-.9 1.3-1.2.1-.1.3-.2.3-.2.1-.1.1-.1 0 0 0 0-.1.1-.1.2-.1.1-.1.2-.2.2-.1.1-.2.3-.3.4 0 .1-.1.1-.1.2-.1.1-.2.3-.3.3 0 .1-.2.3-.4.5s-.4.3-.7.7c-.5.5-.6.7-.8.8 0 0-.1.1-.2.1-.1.1-.2.1-.2.2l-.2.2c-.1.1-.4.3-.7.5-.3.2-.5.4-.5.5v.1c0 .1.1.1.2.1h.4c.1 0 .2-.1.4-.2.1 0 .1-.1.1-.1s.1 0 .1-.1l.1-.1h.1s.1-.1.2-.1.1-.1.2-.1h.1s.1-.1.2-.1c0 0 .2-.1.3-.2.1-.1.3-.2.3-.3.1-.1.2-.2.3-.2.1-.1.2-.1.2-.2.1-.1.1-.1.3-.2.1 0 .1-.1.2-.1 0 0 .1-.1.2-.1s.1-.1.2-.2.5-.4.6-.4c.1 0 .1-.1.3-.2 0 0 .1 0 .1-.1 0 0 .2-.1.3-.2.1-.1.3-.2.3-.2.1-.1.3-.2.3-.3l.1-.1c.2-.1.5-.4.5-.4v.1l-.2.2-.3.3c-.1.1-.1.2-.1.2l-.2.2-.3.3c0 .1-.1.1-.2.2l-.3.3c-.1.1-.2.2-.2.3l-.1.1-.2.2-.6.6c-.1.1-.2.2-.3.2l-.2.2c-.3.2-.4.4-.6.5-.1.1-.3.2-.6.5-.6.5-.8.7-.9.8-.2-.4-.3-.4-.4-.4zm-29.2-.1c-.1 0-.2-.1-.3-.2 0-.1.3-.2.4-.3.1 0 .2-.1.3-.2.2-.1.2-.1.3-.2.1-.1.2-.2.3-.2.1 0 .1-.1.1-.1s.4-.2.5-.3c0 0 .2-.1.3-.1.1-.1.2-.1.2-.1.1 0 0 0-.1.1-.2.3-.3.4-.3.4l-.1.1s0 .1-.1.1c-.1.1-.2.2-.2.3 0 .1-.2.2-.4.3-.1 0-.2.1-.2.1s-.1 0-.1.1c0 0-.1 0-.1.1.1.1-.4.2-.5.1zm-45.7-.1v-.1l.1-.1.1-.1.1-.1s.1 0 .2-.1c0 0 .1-.1.2-.1s.1-.1.2-.2.2-.2.3-.2c.1-.1.2-.1.2-.1s.1 0 .1-.1l.1-.1s.3-.2.4-.2c.1-.1.2-.2.3-.2 0 0 .1-.1.2-.1.1-.1.2-.1.2-.2.1 0 .1-.1.2-.2s.3-.2.4-.3c.2-.2.6-.5.6-.5s.1-.1.2-.1c.1-.1.2-.1.2-.2l.1-.1s.1 0 .1-.1c.1-.1.2-.2.3-.2.1-.1.4-.2.5-.3.1-.1.2-.2.3-.2.1-.1.2-.1.2-.2l.1-.1c.1-.1.6-.5.8-.6l.1-.1c.2-.1.3-.2.4-.3.1 0 .2-.2.3-.3.1-.1.3-.2.3-.3 0 0 .2-.1.3-.2l.2-.2h.2l-.1.1-1 1-1 1c-.1 0-.2.2-.4.3-.2.2-.4.3-.5.4-.5.3-.6.5-1 .9-.1.1-.4.3-.5.4-.1.1-.3.2-.3.3l-.2.2c-.2.1-.3.3-.5.5l-.2.2c-.2.1-.2.2-.2.3v.2l.1.1.1.1c.1.1.2.1.3.1.1 0 .3-.1.5-.3 0 0 .1-.1.2-.1s.2-.1.3-.2l.3-.3c.1 0 .2-.1.2-.2.1 0 .2-.1.3-.2.1-.1.2-.1.2-.1s.3-.3.5-.4c.1-.1.3-.2.4-.4.2-.1.3-.3.4-.3l.2-.2c.1-.1.2-.1.3-.2.1-.1.2-.1.2-.1.1-.1.3-.3.4-.3.1 0 .2-.1.2-.2.1-.1.2-.1.2-.1s.2-.1.3-.2c.2-.1.4-.3.6-.4.1-.1.4-.2.5-.4.3-.2.5-.3.5-.3s0 .1-.3.4c-.4.4-.4.5-.4.5-.1 0-.6.5-.7.6l-.1.1c-.1 0-.2.1-.3.2-.1.1-.3.2-.3.3-.3.2-.4.3-.6.5-.2.2-.4.5-.5.5l-.2.2-.2.2-.1.1-.2.2c-.1.1-.2.1-.2.2l-.1.1-.1.1s-.2.1-.3.3l-.3.3-.1.1-.2.2-.2.2h-.1s-.1 0-.2.1c-.2.1-.3.2-.5.2h-.4c-.3 0-.3 0-2.7.1l-.5-.4zm70.3-.1c-.3 0-.8-.1-1.1-.1h-.6c-.1 0-.2 0-.3-.1-.2 0-.3-.1-.3-.1s0-.1.1-.1c.1-.1.2-.1.2-.2.1 0 .2-.2.3-.2l.2-.2.5-.5c.1-.1.2-.2.3-.2.1-.1.2-.2.3-.2.1-.1.1-.1.2-.1 0 0 .2-.1.4-.3.1-.1.3-.2.4-.4.2-.2.4-.3.5-.4.3-.2.4-.3.5-.4.1-.1.2-.2.3-.2l.2-.2c.1 0 .2-.2.3-.3l.5-.5c.1-.1.3-.2.4-.3l.1-.1s.1 0 .1-.1l.1-.1v.1c-.1.1-.3.4-.7.8-.1.2-.5.5-.8.9l-.6.6-.2.2-.9.9c-.3.3-.4.4-.5.4 0 0-.1 0-.1.1-.1 0-.1.1-.1.1s-.3.2-.3.3l-.1.1-.1.1h.1s1-.3 1.1-.3c.1 0 .4-.1.5-.1 0 0 .1-.1.2-.1.1-.1.6-.4.9-.6.1-.1.2-.1.2-.2 0 0 .2-.1.2-.2.1-.1.2-.2.3-.2.2-.1.6-.5.8-.7 0 0 .3-.3.4-.3l.4-.4c.1-.1.2-.1.2-.2l.3-.3h.1s.1-.1.2-.1c.1-.1.2-.1.2-.1s0 .1-.1.2-.2.2-.2.3c-.1.1-.2.2-.3.4l-.4.4c0 .1-.1.2-.2.2-.1.1-.2.2-.2.3 0 .1-.1.1-.1.1-.1 0-.4.4-.5.5v.1c-.1 0-.1.1-.9.8-.4.3-.7.7-.9.8l-.4.4h-1.1zm6.8-.1l.6-.6c.1 0 .1-.1.1-.1s.2-.2.3-.2c.1 0 .2-.1.3-.2l.2-.2.1-.1.2-.2c.1 0 .1-.1.1-.1l.1-.1.1-.1.1-.1c.2-.1.3-.2.7-.5.4-.3.6-.4.6-.4s0 .1-.1.3c0 .1-.1.2-.1.2s-.1.2-.2.3l-.3.3c-.2.2-.5.4-.8.7l-.1.1-.1.1s-.1 0-.1.1c0 0-.7.4-.8.4l-.1.1c-.1.1-.5.2-.5.2-.2.1-.3.1-.3.1zm-82.4-.2c0-.1.4-.8.5-.9l.1-.1.1-.1s.1-.1.3-.2c.1 0 .1-.1.2-.2l.1-.1.1-.1.2-.2c.1-.1.1-.1.2-.1s.5-.4.6-.5c.2-.2.3-.2.5-.4.1-.1.3-.3.4-.3.1-.1.2-.2.4-.3l.2-.2c.2-.2.3-.2.4-.2H64.8s-.1 0-.1.1c-.1 0-.4.4-.6.6l-.2.2-.3.3-.2.2s-.1.1-.2.3l-.4.4c-.1.1-.2.2-.2.3l-.8.8s-.1.1-.1.2c-.1.2-.1.2-.5.5-.1.1-.2.1-.5.2-.1 0-.3.1-.3.1l-.2-.3zm2-.1s0-.1.1-.2.3-.4.5-.5l.1-.1.1-.1.1-.1c0-.1.1-.1.2-.1s.1-.1.1-.1l.3-.3.3-.3c.1-.1.3-.3.4-.3.1 0 .1-.1.2-.2.1 0 .2-.1.3-.2.1-.1.2-.1.2-.2.2-.1.5-.4.6-.5l.2-.2c.1-.1.2-.1.2-.2 0 0 .1-.1.2-.1s.1-.1.2-.1.1-.1.2-.1l.2-.2c.1-.1.2-.2.4-.3.1-.1.3-.2.4-.3.2-.1.2-.2.3-.2h.2l-.6.6-1 1s-.2.2-.4.5c-.2.2-.4.5-.5.5l-.3.3-.2.2s-.1.1-.3.2c-.1.1-.3.2-.3.3-.1.1-.2.1-.3.2-.1.1-.2.1-.2.2l-.1.1s-.1 0-.1.1h-.1s-.1 0-.1.1c0 0-.2.1-.3.2-.2.1-.3.1-.4.1-.1 0-.2 0-.3.1-.4.2-.5.3-.5.2zm2 0s.3-.4.6-.7l.8-.8c.1-.1.3-.3.5-.4.1-.1.1-.1.3-.2l.1-.1c.1-.1.2-.1.3-.2h.1s.1 0 .1-.1c.1-.1.2-.1.3-.2.1 0 .1-.1.1-.1s.1-.1.2-.1.1-.1.2-.1c0 0 .1 0 .1-.1.1 0 .3-.2.8-.5.2-.1.3-.2.3-.2l.1-.1.1-.1H69.5l.1-.1s.2-.1.3-.2c.1-.1.2-.2.3-.2 0 0 .1-.1.2-.1s.2-.1.2-.2c.1 0 .2-.2.3-.2.1-.1.2-.1.2-.1l.1-.1.1-.1h.1l-.6.6-.3.3c-.2.2-.6.6-.8.7-.1.1-.2.2-.3.2-.3.3-.5.5-.7.6l-.1.1s-.1.1-.3.2l-.2.2-.3.3c-.2.3-.4.4-.5.4 0 0-.1 0-.1.1-.1 0-.2.1-.2.2-.1 0-.1.1-.1.1s-.2.1-.4.3c-.4.3-.5.4-.5.4-.1.1-.3.2-.4.3-.1 0-.2.1-.2.1s-.1 0-.1.1c0 0-.1 0-.1.1-.1.1-.1.1-.2.1h-.1-.2-.1c-.1-.1-.4-.1-.4-.1zm46 0c0-.1-.1-.1 0 0l-.1-.1-.3-.2s.3-.3.4-.3c.1-.1.2-.1.5-.4l.3-.3c.1 0 .2-.1.3-.2.1-.1.2-.1.3-.2.3-.2.4-.2.5-.3l.1-.1s.1 0 .1-.1c.2-.1.3-.1.3-.1s0 .1-.1.1c-.1.1-.3.3-.3.4l-.1.1-.1.1-.2.2-.1.1v.2c0 .1-.1.1-.1.1-.1.1-.1.1-.2.1-.1.1-.1.1-.2.1l-.2.2s-.1 0-.1.1l-.2.2-.1.1s-.1 0-.1.1c-.1.1-.2.1-.3.1zm-52.3 0c-.1 0-.1-.1 0 0-.1-.1.1-.4.3-.6.2-.2.2-.3.7-.7.1-.1.2-.1.2-.2 0 0 .2-.1.3-.2.3-.2.4-.3.6-.5.2-.2.6-.5.6-.5s.1 0 .2-.1c.1 0 .2-.1.2-.1h.1s0 .1-.1.1l-.5.5-.1.1-.1.1s-.1.2-.2.3c-.1.1-.2.3-.3.4-.1.1-.2.2-.2.3l-.2.2c0 .1-.2.2-.3.3 0 0-.1.1-.2.1-.1.1-.2.1-.2.2-.1 0-.2.1-.3.1-.1 0-.2.1-.2.1 0 .1-.2.1-.3.1zm-1.1-.3c-.1-.1-.2-.2-.2-.3v-.1c0-.1 0-.2.1-.3v-.1s0-.1.1-.1l.1-.1.1-.1.1-.1s.1-.1.2-.1c.2-.1.2-.1.3-.2l.1-.1s.1 0 .1-.1c0 0 .1-.1.2-.1s.2-.1.2-.1h.1c.1 0 .2-.1.3-.1l-.3.3-.5.5-.3.3c-.1.1-.3.4-.5.6-.1.3-.1.4-.2.3 0 .1 0 0 0 0zm52.3-.5c-.2-.1-.5-.2-.5-.2s.1-.1.2-.1c.1-.1.3-.2.4-.3.1-.1.2-.2.3-.2.1 0 .2-.1.2-.2.1-.1.2-.2.3-.2.1-.1.3-.1.4-.2.1-.1.2-.1.2-.1s.1 0 .1-.1l.2-.1c.1 0 .2-.1.4-.2s.3-.2.3-.2-.1.2-.3.4l-.2.2v.1l-.4.4s-.2.2-.4.3l-.2.2-.1.1-.1.1c-.1 0-.1.1-.2.2s-.2.1-.2.2l-.1.1c-.2-.1-.3-.1-.3-.2zm-1.5-.7l-.1-.1s.1-.1.2-.1c.1-.1.2-.1.2-.1l.1-.1c.1 0 .1-.1.2-.1.1-.1.7-.5.9-.6.2-.1.3-.2.3-.2h.2s.1-.1.2-.1c.1-.1.2-.1.2-.1.1-.1.2-.1.2-.1s0 .1-.1.1l-.4.4c-.6.6-.8.8-1 .9-.1 0-.2.2-.2.2-.1 0-.3.1-.3.1-.1-.2-.5-.1-.6-.1zm-.9-.8c-.1 0-.1-.1-.1-.1-.1 0 0-.1.2-.3l.2-.2s.1-.1.2-.1.1-.1.2-.2l.4-.4c.1-.1.2-.1.2-.1s.1 0 .2-.1c.2-.1.6-.4.9-.5.1 0 .2-.1.2-.1l.2-.1s-.1.1-.1.2l-.5.5-1 1c-.1.1-.2.1-.2.2 0 0 0 .1-.1.1l-.2.2h-.7zm39.8 0s0-.1.1-.2.1-.3.1-.4c0-.1.1-.2.1-.3.1-.1.3-.4.6-.6l.1-.1c.1 0 .2-.2.2-.2l.1-.1c.2-.1.2-.2.2-.2s-.1.1-.2.3c0 .1-.1.1-.1.2 0 0-.1.1-.1.2s-.1.2-.2.3c-.3.5-.4.5-.6.8l-.2.2c0 .1-.1.1-.1.1zm-44.6-1l.6-.6c.1-.1.3-.2.3-.3.2-.2.4-.5.8-.8l.2-.2c.1-.1.4-.4.5-.4.1 0 .2-.1.3-.2.1-.1.3-.2.5-.3.1 0 .1-.1.2-.1 0 0 .1 0 .1-.1.1 0 .2-.1.2-.1.1-.1.2-.1.3-.2l.1-.1v.1c-.1.2-.7.9-.9 1.1-.2.2-.2.2-.3.2 0 0-.2.1-.3.2l-.1.1s-.1 0-.1.1-.1.1-.1.1-.1.1-.2.1c-.4.4-.8.7-1.2.9-.1 0-.2.1-.4.2-.1.1-.3.2-.3.2s-.1 0-.2.1c.1 0 0 0 0 0zm33.2-.1s.1 0 0 0l.1-.1s.1 0 .1-.1l.1-.1s.1 0 .1-.1l.2-.2c.1 0 .1-.1.1-.1h.1c.1 0 .2-.1.3-.2l.1-.1v-.1s.1-.2.3-.2c0 0 .2-.2.5-.3l.5-.4-.1.1c-.1.1-.1.2-.2.2 0 .1-.1.1-.1.1s-.2.3-.3.3c0 0 0 .1-.1.1v.1c0 .1-.3.3-.3.3-.1 0-.3.2-.4.3l-.1.1s-.1 0-.2.1-.2.1-.2.1c0 .2-.3.3-.5.2zm-34.7-.6c-.1 0-.1-.1 0 0l.1-.1.2-.2.1-.1s.6-.6 1-.9l.6-.6.1-.1s.1-.1.1-.2c.4-.4.4-.6.4-.7 0-.1 0-.1-.1-.2s-.1-.1-.3.1c-.1.1-.5.3-1.1.7-.1.1-.4.3-.7.5-.3.2-.5.4-.6.4-.1.1-.2.1-.2.1s-.1-.1 0-.1c0 0 .7-.8 1.6-1.8.2-.2.3-.3.3-.4 0 0 .1-.1.1-.2.1-.1.1-.2.1-.3 0-.1-.1-.1-.2-.2h-.1l-.1.1s-.9.7-1.2.8c-.1 0-.1.1-.1.1v-.1c.1-.1.5-.9.5-.9v-.1s0-.1.1-.1c.1-.2.2-.3.1-.4 0-.1-.1-.2-.2-.3-.1-.1-.2-.1-.5.1-.1.1-.3.1-.3.2-.1 0-.2.1-.3.1-.2.1-.3.1-.3.1s0-.1.1-.2c.2-.3.3-.3.2-.3 0 0-.5 0-.7.1-.1 0-.2 0-.2.1-.1 0-.1.1-.2.1h-.1-.1l.1-.1c.2-.2.3-.2.7-.3.2-.1.5-.2.5-.2.1 0 .1-.1.2-.1 0 0 .1 0 .2-.1.1 0 .1-.1.2-.1s.3-.1.5-.3c.2-.1.4-.3.5-.3.1 0 .2-.1.3-.2.1-.1.2-.1.2-.1s-.1.2-.2.2c-.1.1-.2.4-.3.5-.1.1-.1.2 0 .2v.1l.1.1.2-.1c.1 0 .2-.1.2-.1s.3-.1.3-.2c0 0 .2-.1.7-.4h.1s-.1.1-.2.3c-.1.2-.2.3-.2.3-.1.1-.1.2-.1.3v.2c0 .1.1.1.2.2s.1.1.3.1c.2 0 .5-.1 1-.3.2-.1.5-.2.5-.2l-.1.2s-.1.2-.3.3c-.1.1-.1.2-.2.2-.1.2-.2.2-.3.3-.1 0-.1.1-.1.1v.2c0 .1.1.2.1.2s.1 0 .2-.1c.1 0 .2-.1.3-.1.1 0 .2 0 .3-.1.2-.1.5-.1.5-.1s-.2.3-.3.4c-.2.2-.5.4-.5.5-.1.2-.2.2-.1.5v.2l-.1.1c0 .1-.1.3-.1.3v.2h-.2c-.1 0-.3-.1-.3 0h-.1s-.1 0-.1.1h-.1s-.1.1-.2.1c-.1.1-.3.2-.4.3-.3.2-.3.2-.3.3 0 0-.1.1-.3.2h-.1c-.1 0 0 0 0 0l-.1.1h-.1c-.1.1-.2.2-.3.2l-.1.1-.2.1h-.1-.2c-.1.7-.1.7-.2.7zm-24.7-.3s.2-.2.5-.4l.4-.4c.2-.2.4-.4.6-.5.1 0 .2-.1.2-.2.1-.1.2-.2.3-.2.1-.1.8-.4 1-.5l.1-.1-.1.1c-.1.1-.2.2-.3.2-.1.1-.2.2-.3.2-.3.2-.4.3-.5.4-.2.1-.2.1-.3.2-.1.1-.1.1-.2.1l-.1.1-.1.1-.2.2-.2.2h-.1s-.1.1-.2.1-.2.1-.3.1c0 .3-.1.3-.2.3.1 0 0 0 0 0zm40.6-.2c-.1 0-.1 0-.1-.1s-.1-.1 0-.2c0-.1.1-.2.2-.3l.1-.1.1-.1.1-.1.1-.1s.1-.1.2-.1.2-.1.2-.1c.1 0 .1-.1.2-.1 0 0 .1 0 .1-.1 0 0 .1 0 .2-.1.1 0 .2-.1.3-.1.1-.1.2-.1.3-.2.2-.1.5-.3.6-.4.1-.1.1 0 0 .1-.3.5-.5.8-1 1.1-.1.1-.3.2-.3.3h-.1s-.2.1-.2.2c0 0-.4.3-.5.3h-.4c0 .2-.1.2-.1.2zm-.8-.9c-.1 0-.1-.1-.1-.1v-.1c0-.1.1-.2.2-.3h.1s.1 0 .1-.1l.1-.1c.1 0 .5-.2.6-.2.1 0 .1 0 .1-.1 0 0 .1 0 .1-.1.1 0 .2-.1.2-.1.1 0 .1 0 .2-.1h.1s.1 0 .1-.1l.1-.1s.1 0 .1-.1c.1 0 .1-.1.1-.1l-.1.1-.4.4c-.5.5-.6.6-.7.6l-.1.1-.1.1-.1.1-.1.1s-.2.1-.3.1c-.1.1-.1.1-.2.1zm-31.4-.1l.1-.2c.2-.2.3-.3.4-.3.1 0 .1-.1.2-.2.2-.2.9-.9 1.1-1 .1-.1.2-.1.2-.1l.1-.1s.1-.1.2-.1H86.7s0 .1.1.1.1 0 .1.1l-.3.3-.2.2c-.2.2-.3.2-.8.5-.2.1-.3.2-.3.2-.1.1-.6.4-.7.4l-.1.1s-.1 0-.1.1h-.3zm4.1-.4l.1-.1c.1 0 .2-.2.3-.3.1-.1.2-.2.3-.2 0 0 .1-.1.2-.1s.1-.1.1-.1h.1l.2-.1.2-.2s.2-.1.3-.2c.1-.1.4-.2.4-.3.1-.1.4-.3.7-.5.4-.3.4-.3.5-.3h.1l-.1.2-.2.2-.2.2c-.1.1-.2.1-.2.1-.1.1-.5.4-.5.4s-.1.1-.2.1-.1.1-.2.2l-.1.1v.1s-.1.1-.4.2c-.1.1-.2.1-.2.1-.1.1-.2.1-.2.1s-.1.1-.2.1h-.1s-.1 0-.2.1c-.1 0-.2 0-.2.1s-.3.2-.3.1c0 .1 0 0 0 0zm5.4-.1v-.1c0-.1.2-.3.4-.4.1-.1.1-.1.3-.2.3-.2.7-.3.8-.3.1 0 .1.1 0 .2 0 0-.1.1-.2.1-.2.1-.3.2-.4.3-.1 0-.2.1-.3.2-.1.1-.2.1-.2.1l-.1.1c-.1 0-.1.1-.1.1-.1 0-.2-.1-.2-.1zm21.2-.3l-.1-.1v-.1c0-.1.3-.2.4-.2 0 0 .1 0 .1-.1l.1-.1s.1 0 .2-.1c.1 0 .2-.1.3-.2 0 0 .2-.1.3-.2.1-.1.3-.2.3-.2.1-.1.2-.1.3-.1h.1s0 .1-.3.3l-.2.2s-.1.1-.2.1-.2.1-.2.2c-.2.2-.4.4-.6.5-.1.1-.2.1-.3.1h-.3.1zm14.6-1.2h-.6c-.1 0-.2-.1-.2 0-.1 0-.2-.1-.2-.1 0-.1-.2-.1-.2-.1l-.1-.1s0-.1-.1-.1c-.1-.1-.1-.1-.1-.2v-.1c.1 0 .2-.1.3 0h.5c.2 0 .2 0 .5.1.2 0 .3.1.7.1h1.4c.8-.1 1-.1 1-.1h.2c.1 0 .1 0 .1.1s0 .3-.2.3c0 0-.1 0-.1.1 0 0 0 .1-.1.1s-.5.2-.6.2h-.1c-.1 0-.2.1-.3.1h-.2c-.2 0-.4.1-.6.1-.3-.4-1-.4-1-.4zm-45.8-.1c0-.1 0-.1 0 0 0-.1-.1-.2 0-.2l.1-.1c.1 0 .2-.1.2-.2.1-.1.6-.5.8-.6.1-.1.1-.1.3-.1h.4s.1 0 .1.1c0 0 0 .1-.1.1-.1.1-.1.1-.5.3-.2.1-.3.2-.4.2l-.6.3c-.1.1-.2.2-.3.2zm-3.3-.5v-.1-.1c0-.1.1-.2.4-.5l.3-.3s.1-.1.2-.1.2-.1.2-.2c.1 0 .1-.1.2-.1 0 0 .1-.1.2-.1.2-.1.4-.3.5-.3 0 0 .1 0 .1-.1l.1-.1.1-.1.1-.1c.1-.1.2-.2.4-.2H83.4v.4c-.1.1-.1.2-.2.2s-.1.1-.1.1l-.1.1s-.1.1-.2.1c-.1.1-.2.2-.4.2-.1.1-.2.1-.3.1 0 0-.1.1-.2.1-.3.1-.2.1-.5.3-.2.1-.4.2-.5.3-.5.5-.6.5-.6.5zm2-.1c-.1-.1 0-.1.1-.3.3-.2.7-.6.9-.7.1 0 .2-.1.3-.2.1-.1.2-.2.3-.2.1 0 .2-.1.2-.1.1 0 .1-.1.1-.1l.3-.2c.1-.1.3-.2.4-.2.1 0 .2.1.2.2 0 0-.1.1-.1.2s-.1.1-.1.1c0 .1 0 .1-.1.1s-.1 0-.4.2c-.7.4-.7.4-1.3.8-.2.2-.5.3-.5.3s-.1 0-.1.1h-.1-.1c.1.1 0 .1 0 0zm23.4-3.9l-.1-.1c-.1-.1-.1-.1.1-.2.3-.2.5-.3.6-.3.1 0 .2-.1.3-.1.2-.1.7-.3.8-.3.1 0 .5-.2.5-.2s-.2.2-.3.4c-.3.3-.6.6-.7.6 0 0-.1.1-.3.1-.1.1-.3.1-.3.1h-.1l-.3.1c-.1 0-.1 0-.2-.1zm-1.2-1.5s0-.1.1-.1c.1-.1.2-.2.3-.4 0-.1.1-.2.2-.2l.1-.1s0-.1.1-.1c.1-.1.2-.2.1-.3v-.3c-.1-.2-.3-.1-.9.3-.1 0-.1.1-.2.1h-.1-.1s-.1 0-.1.1c0 0-.1 0-.1.1h-.1-.1-.1c0-.1.2-.2.3-.4.1-.1.2-.2.2-.3 0-.1.1-.1.1-.2.1-.1.1-.3.1-.4-.1-.1-.2 0-.3 0-.1 0-.1.1-.1.1s-.3.1-.4.2c-.2.1-.3.2-.4.2-.2.1-.2.2-.3.2-.2.1-.2.1-.1-.1.2-.2.2-.3.3-.5.1-.1.1-.2.2-.2.1-.1.1-.2 0-.4 0-.1-.1-.1-.1-.1s-.5-.2-.7-.3c-.1 0-.3-.1-.3-.1-.1 0-.2-.1-.3-.1-.1 0-.2 0-.3-.1-.1 0-.1-.1 0-.1.2 0 1.2 0 1.3.1h.2s.2 0 .3.1c.2 0 .4.1.5.1.1 0 .3.1.4.1.1 0 .3.1.3.1.1 0 .2.1.2.1.1 0 .3.1.4.2 0 0 .1.1.2.1.2.1.4.2.8.6.1.1.3.3.4.3l.3.3c.1.1.2.1.2.2l.2.2c.1.1.1.1.2.1 0 0-.3.2-.4.3-.1 0-.2.1-.3.1-.2.1-.3.2-.4.1v-.3c0-.3 0-.3-.2-.4h-.2c-.1 0-.3.1-.4.2 0 0-.1 0-.1.1-.1 0-.1.1-.1.1h-.1s-.1.1-.2.1-.2.1-.3.2c0 .3-.2.4-.2.4zm27.5-1.2l.1-.1.2-.2.1-.1.1-.1.1-.1c.1 0 .3-.2.5-.3.3-.2.3-.2.2 0v.2c0 .1-.1.1-.2.2-.4.3-.7.4-.9.5h-.2c.1 0 0 0 0 0zm13.6-2.4s0-.1.3-.4c.3-.3.4-.3.9-.4h.2c.1 0 .1 0 0 .1 0 0-.4.2-.7.4-.4.2-.6.3-.7.3.1 0 0 0 0 0zm2.9-.2l.2-.2.1-.1h.1c.1 0 .2 0 .3-.1.2-.1.3-.1.3 0 0 0-.1.2-.2.2 0 0-.1.1-.2.1s-.3.1-.4.1c-.1 0-.2.1-.2 0zm-55.6-.9s0-.1.1-.1c0 0 .1-.1.1-.2s.2-.2.4-.4.4-.4.6-.5c.3-.2.5-.5.6-.6.1-.1.1-.1.1 0-.1.2-.3.6-.6.9-.1.1-.3.4-.5.6-.3.3-.3.4-.6.4l-.2-.1zm-1.2 0h-.2-.1c-.1 0-.1-.1 0-.2.1-.2.2-.3.6-.6.1 0 .1-.1.2-.2s.4-.3.4-.3-.1.3-.1.4c-.2.2-.6.8-.6.9h-.2zm2.7-.1c-.1 0-.1-.1-.1-.1 0-.1 0-.1.1-.1H94.7s.3-.3.4-.3l.2-.2c.3-.3.6-.5.8-.8.2-.2.3-.3.3-.2-.1.1-.2.6-.2.6 0 .2.1.3.3.3.1 0 .2 0 .3-.2.1 0 .2-.1.2-.2.2-.1.6-.6.8-.8.1-.1.2-.2.2-.3 0 0 .1-.2.2-.3.1-.1.2-.3.2-.3 0 .2-.1.4-.2.7 0 .1-.1.2-.2.3 0 .1-.1.2-.1.2 0 .1 0 .1-.2.3-.1.1-.1.1-.1.2l-.1.1-.2.2h-.1s-.1 0-.1.1l-.1.1-.1.1s-.1 0-.2.1l-.1.1s-.3.1-.4.2c-.1.1-.3.1-.4.1-.1 0-.2 0-.2.1-.2.1-.5.1-.9.1-.2 0-.2 0-.3-.1zm-4-.2c-.1 0-.2-.1-.2-.1l-.1-.1H90s.2-.2.5-.3c.1 0 .2-.1.3-.1.1-.1.2-.1.3-.1 0 0 0 .1-.1.1-.1.1-.1.1-.1.2s-.4.4-.5.4c.1 0 .1 0 0 0zm7.5-3.8c-.1-.1-.1-.1-.2-.3 0-.1-.2-.5-.3-.6-.1-.1-.2-.3-.4-.5-.1-.1-.1-.2-.1-.2h.4s.1 0 .1.1l.1.1c.1 0 .2.1.2.1.1 0 .2.3.2.3v.1c.1.1.1.6.1.7v.1c0 .1 0 .2-.1.1.1.1 0 0 0 0zm34.1-1c0-.1 0-.1 0 0 .1-.1.1-.1 0 0 .1 0 0 0 0 0zm-2-1.1c0-.1 0-.1 0 0 .1 0 .1 0 0 0z"/><path id="polygon4029" class="st2" d="M40.6 74.2v65.7h17.7V74.2z"/><path id="polygon4031" class="st2" d="M156.2 74v65.8h17.7V74z"/></g></svg>
